<svg xmlns="http://www.w3.org/2000/svg" version="1.1" style="font-family:Lato, &#x27;Helvetica Neue&#x27;, Helvetica, Arial, sans-serif;font-size:18px;background-color:white;text-rendering:geometricPrecision;-webkit-font-smoothing:antialiased" width="850" height="600" viewBox="0 0 850 600"><g class="HeaderView"><g transform="translate(774, 15) scale(0.29)"><svg className="owidLog" width="210" height="120" viewBox="0 0 210 120" fill="none" xmlns="http://www.w3.org/2000/svg">
<g clip-path="url(#clip0)">
  <path d="M0 0h210v107.89H0V0z" fill="#002147" />
  <path
    d="M40.98 32.25c0 2.36-.38 4.53-1.12 6.51a14.26 14.26 0 0 1-8.1 8.4c-1.9.78-4.02 1.17-6.34 1.17-2.31 0-4.42-.39-6.33-1.17a14.31 14.31 0 0 1-8.08-8.4 18.29 18.29 0 0 1-1.12-6.51c0-2.36.38-4.53 1.12-6.5.75-1.97 1.8-3.67 3.17-5.1a14.32 14.32 0 0 1 4.9-3.34c1.92-.8 4.03-1.19 6.34-1.19 2.32 0 4.43.4 6.34 1.19 1.92.8 3.56 1.9 4.93 3.34a14.87 14.87 0 0 1 3.17 5.1 18.1 18.1 0 0 1 1.12 6.5zm-4.38 0c0-1.94-.26-3.68-.8-5.22a10.91 10.91 0 0 0-2.24-3.89 9.68 9.68 0 0 0-3.52-2.46 11.95 11.95 0 0 0-4.62-.86c-1.68 0-3.21.28-4.6.86a9.88 9.88 0 0 0-3.54 2.46 10.91 10.91 0 0 0-2.24 3.9c-.53 1.53-.8 3.27-.8 5.2 0 1.94.27 3.68.8 5.22a11.17 11.17 0 0 0 2.24 3.9 10.01 10.01 0 0 0 3.55 2.44c1.38.56 2.9.83 4.6.83s3.24-.27 4.61-.83a9.8 9.8 0 0 0 3.52-2.44 11.17 11.17 0 0 0 2.25-3.9c.53-1.54.8-3.28.8-5.21zm26.22-6.54V48H60.5c-.56 0-.9-.27-1.05-.81l-.31-2.4a12.45 12.45 0 0 1-3.26 2.6c-1.2.64-2.58.96-4.13.96-1.22 0-2.3-.2-3.24-.6a6.52 6.52 0 0 1-2.33-1.7 7.37 7.37 0 0 1-1.43-2.67c-.3-1.04-.46-2.2-.46-3.45V25.7h3.91v14.22c0 1.68.38 2.99 1.15 3.91.77.93 1.96 1.39 3.54 1.39 1.16 0 2.24-.27 3.23-.82a10.42 10.42 0 0 0 2.8-2.28V25.7h3.91zm8.61 4.47a9.94 9.94 0 0 1 2.6-3.56 5.64 5.64 0 0 1 3.76-1.3c.47 0 .92.05 1.34.15.44.1.83.27 1.17.49l-.3 2.92c-.09.37-.3.55-.66.55-.2 0-.5-.04-.9-.13a6.21 6.21 0 0 0-3.24.18 4.23 4.23 0 0 0-1.47.92c-.42.4-.81.9-1.17 1.5-.33.58-.64 1.26-.92 2.02V48H67.7V25.71h2.25c.42 0 .72.08.88.25.16.16.27.44.33.83l.26 3.39zm61.16-13.7L122.75 48h-3.82l-7.99-24.05a21.95 21.95 0 0 1-.42-1.58 38.36 38.36 0 0 1-.44 1.58L102.05 48h-3.83L88.4 16.47h3.54c.38 0 .7.1.95.29.26.2.43.43.5.73l6.52 21.9.28 1.28.29 1.46.3-1.46.38-1.27 7.41-21.91c.1-.25.26-.48.51-.69.27-.22.58-.33.95-.33h1.23c.38 0 .69.1.92.29a1.77 1.77 0 0 1 .53.73l7.4 21.9a28.4 28.4 0 0 1 .68 2.62 29.52 29.52 0 0 1 .52-2.61l6.54-21.91a1.31 1.31 0 0 1 .48-.7c.27-.21.58-.32.95-.32h3.32zm9.35 8.88c1.63 0 3.1.27 4.4.82a9.43 9.43 0 0 1 5.46 5.94c.5 1.4.74 2.98.74 4.73 0 1.76-.25 3.34-.74 4.75a9.43 9.43 0 0 1-5.46 5.92c-1.3.52-2.77.79-4.4.79-1.64 0-3.12-.27-4.44-.8a9.42 9.42 0 0 1-3.35-2.3c-.92-1-1.63-2.2-2.13-3.61-.49-1.41-.73-3-.73-4.75s.24-3.33.73-4.73c.5-1.43 1.2-2.64 2.13-3.63.93-1 2.04-1.77 3.35-2.31 1.32-.55 2.8-.82 4.44-.82zm0 19.89c2.2 0 3.84-.73 4.93-2.2 1.08-1.48 1.63-3.54 1.63-6.18 0-2.66-.55-4.72-1.63-6.2-1.09-1.49-2.73-2.23-4.93-2.23-1.12 0-2.09.2-2.93.57a5.71 5.71 0 0 0-2.06 1.65c-.55.72-.96 1.61-1.24 2.67-.26 1.04-.4 2.22-.4 3.54 0 2.64.55 4.7 1.64 6.18 1.1 1.47 2.76 2.2 4.99 2.2zm17.97-15.07a9.94 9.94 0 0 1 2.6-3.56 5.64 5.64 0 0 1 3.76-1.3c.47 0 .91.05 1.34.15.44.1.83.27 1.16.49l-.28 2.92c-.09.37-.31.55-.66.55-.2 0-.5-.04-.9-.13a6.2 6.2 0 0 0-3.24.18 4.23 4.23 0 0 0-1.47.92c-.43.4-.82.9-1.17 1.5a13.1 13.1 0 0 0-.92 2.02V48h-3.94V25.71h2.24c.43 0 .72.08.88.25.17.16.28.44.33.83l.27 3.39zm15.04-14.59V48h-3.92V15.6h3.92zm19.55 15.43a6.22 6.22 0 0 0-2.38-2.05 6.7 6.7 0 0 0-2.86-.6c-2.07 0-3.66.75-4.77 2.23-1.12 1.48-1.68 3.6-1.68 6.33 0 1.46.13 2.7.38 3.74a7.29 7.29 0 0 0 1.1 2.56 4.35 4.35 0 0 0 1.78 1.45c.7.3 1.5.46 2.4.46 1.29 0 2.41-.3 3.36-.88a9.6 9.6 0 0 0 2.67-2.49V31.02zm3.91-15.43V48h-2.33c-.56 0-.9-.27-1.06-.81l-.35-2.71a12.13 12.13 0 0 1-3.25 2.77 8.28 8.28 0 0 1-4.23 1.06 7.31 7.31 0 0 1-6.14-2.9c-.73-.96-1.3-2.15-1.69-3.57a18.35 18.35 0 0 1 .07-9.48 11.29 11.29 0 0 1 1.89-3.7 8.7 8.7 0 0 1 7.06-3.34 7.96 7.96 0 0 1 6.12 2.62V15.59h3.91zM46.61 70.71V93H42.7V70.71h3.91zm.84-7c0 .39-.08.75-.24 1.09-.15.32-.35.61-.62.88-.25.25-.55.44-.9.59a2.67 2.67 0 0 1-2.16 0 2.9 2.9 0 0 1-1.45-1.47 2.67 2.67 0 0 1 0-2.16c.15-.35.35-.65.6-.9.25-.27.53-.47.85-.62a2.67 2.67 0 0 1 2.16 0c.35.15.65.35.9.62.27.25.47.55.62.9.16.34.24.7.24 1.08zm7.97 10.24c.49-.54 1-1.04 1.54-1.48a9.85 9.85 0 0 1 3.66-1.84 8.96 8.96 0 0 1 5.43.35c.94.4 1.72.97 2.33 1.71.63.74 1.11 1.62 1.43 2.67.32 1.04.49 2.19.49 3.45V93h-3.94V78.81c0-1.69-.4-3-1.17-3.92-.76-.93-1.93-1.4-3.5-1.4-1.15 0-2.24.27-3.25.83-1 .56-1.92 1.31-2.77 2.27V93h-3.94V70.71h2.35c.56 0 .9.28 1.04.82l.3 2.42zm57.7 3.3c0 2.36-.37 4.5-1.11 6.44a14.3 14.3 0 0 1-3.17 4.98c-1.37 1.37-3 2.45-4.93 3.2-1.9.76-4.02 1.13-6.33 1.13H85.8V61.47h11.77c2.31 0 4.42.39 6.33 1.15a13.8 13.8 0 0 1 8.1 8.18 17.75 17.75 0 0 1 1.12 6.45zm-4.37 0c0-1.94-.26-3.67-.8-5.2a10.94 10.94 0 0 0-2.23-3.87 9.57 9.57 0 0 0-3.53-2.42 12.23 12.23 0 0 0-4.61-.83h-7.5v24.62h7.5c1.7 0 3.24-.28 4.61-.84a9.7 9.7 0 0 0 3.53-2.4 10.94 10.94 0 0 0 2.24-3.87c.53-1.53.8-3.26.8-5.2zm19.8 5.72c-1.8.06-3.34.2-4.62.44-1.26.22-2.3.51-3.1.88-.8.36-1.37.8-1.74 1.3-.35.5-.53 1.05-.53 1.67 0 .58.1 1.1.3 1.52a3 3 0 0 0 .76 1.05c.34.27.73.46 1.17.6a6.13 6.13 0 0 0 1.45.17 7.28 7.28 0 0 0 3.5-.81 11.95 11.95 0 0 0 2.82-2.2v-4.62zm-12.65-9.11a12.73 12.73 0 0 1 3.98-2.66c1.43-.59 3-.88 4.73-.88 1.25 0 2.36.2 3.33.61a6.81 6.81 0 0 1 3.94 4.38c.33 1.04.5 2.19.5 3.43V93h-1.74a1.8 1.8 0 0 1-.88-.18c-.2-.13-.36-.38-.48-.74l-.44-2.12-1.72 1.46a9.48 9.48 0 0 1-3.74 1.7c-.69.15-1.46.23-2.3.23-.87 0-1.69-.12-2.45-.35a5.34 5.34 0 0 1-3.34-2.93 6.64 6.64 0 0 1-.49-2.64c0-.88.25-1.72.73-2.53a6.33 6.33 0 0 1 2.35-2.17c1.09-.63 2.5-1.15 4.25-1.54 1.75-.41 3.89-.65 6.42-.7v-1.75c0-1.73-.37-3.03-1.12-3.91-.75-.9-1.84-1.34-3.28-1.34-.97 0-1.78.12-2.44.37-.64.23-1.2.5-1.7.81l-1.23.82c-.33.23-.67.35-1 .35-.27 0-.5-.07-.69-.2a2.1 2.1 0 0 1-.48-.53l-.7-1.25zm27.67 19.5c-1.76 0-3.12-.5-4.07-1.48-.94-.98-1.41-2.4-1.41-4.25V74h-2.68a.9.9 0 0 1-.6-.2c-.16-.14-.24-.36-.24-.66v-1.56l3.65-.46.9-6.89c.05-.22.14-.4.29-.52a.88.88 0 0 1 .62-.22H142v7.67h6.44V74H142v13.38c0 .94.22 1.63.68 2.09.45.45 1.04.68 1.76.68a3.21 3.21 0 0 0 1.85-.53l.55-.35c.16-.12.3-.18.41-.18.2 0 .4.13.55.38l1.15 1.87a7.45 7.45 0 0 1-2.44 1.5 8.53 8.53 0 0 1-2.95.52zm19.68-10.4c-1.8.07-3.34.21-4.62.45-1.26.22-2.3.51-3.1.88-.8.36-1.37.8-1.74 1.3-.35.5-.53 1.05-.53 1.67 0 .58.1 1.1.3 1.52a2.9 2.9 0 0 0 .76 1.05c.34.27.73.46 1.17.6a6.13 6.13 0 0 0 1.45.17 7.3 7.3 0 0 0 3.5-.81 12.04 12.04 0 0 0 2.82-2.2v-4.62zm-12.65-9.1a12.72 12.72 0 0 1 3.99-2.66c1.42-.59 3-.88 4.72-.88 1.25 0 2.36.2 3.33.61a6.81 6.81 0 0 1 3.94 4.38c.33 1.04.5 2.19.5 3.43V93h-1.74a1.8 1.8 0 0 1-.88-.18c-.2-.13-.36-.38-.48-.74l-.44-2.12-1.72 1.46a9.48 9.48 0 0 1-3.74 1.7c-.69.15-1.46.23-2.3.23-.87 0-1.69-.12-2.45-.35a5.33 5.33 0 0 1-3.34-2.93 6.62 6.62 0 0 1-.49-2.64c0-.88.25-1.72.73-2.53a6.33 6.33 0 0 1 2.35-2.17c1.09-.63 2.5-1.15 4.25-1.54 1.74-.41 3.89-.65 6.42-.7v-1.75c0-1.73-.37-3.03-1.12-3.91-.75-.9-1.84-1.34-3.28-1.34-.97 0-1.78.12-2.44.37-.64.23-1.2.5-1.7.81l-1.22.82c-.34.23-.68.35-1.02.35-.26 0-.49-.07-.68-.2a1.88 1.88 0 0 1-.48-.53l-.7-1.25zM40.98 32.25c0 2.36-.38 4.53-1.12 6.51a14.26 14.26 0 0 1-8.1 8.4c-1.9.78-4.02 1.17-6.34 1.17-2.31 0-4.42-.39-6.33-1.17a14.31 14.31 0 0 1-8.08-8.4 18.29 18.29 0 0 1-1.12-6.51c0-2.36.38-4.53 1.12-6.5.75-1.97 1.8-3.67 3.17-5.1a14.32 14.32 0 0 1 4.9-3.34c1.92-.8 4.03-1.19 6.34-1.19 2.32 0 4.43.4 6.34 1.19 1.92.8 3.56 1.9 4.93 3.34a14.87 14.87 0 0 1 3.17 5.1 18.1 18.1 0 0 1 1.12 6.5zm-4.38 0c0-1.94-.26-3.68-.8-5.22a10.91 10.91 0 0 0-2.24-3.89 9.68 9.68 0 0 0-3.52-2.46 11.95 11.95 0 0 0-4.62-.86c-1.68 0-3.21.28-4.6.86a9.88 9.88 0 0 0-3.54 2.46 10.91 10.91 0 0 0-2.24 3.9c-.53 1.53-.8 3.27-.8 5.2 0 1.94.27 3.68.8 5.22a11.17 11.17 0 0 0 2.24 3.9 10.01 10.01 0 0 0 3.55 2.44c1.38.56 2.9.83 4.6.83s3.24-.27 4.61-.83a9.8 9.8 0 0 0 3.52-2.44 11.17 11.17 0 0 0 2.25-3.9c.53-1.54.8-3.28.8-5.21zm26.22-6.54V48H60.5c-.56 0-.9-.27-1.05-.81l-.31-2.4a12.45 12.45 0 0 1-3.26 2.6c-1.2.64-2.58.96-4.13.96-1.22 0-2.3-.2-3.24-.6a6.52 6.52 0 0 1-2.33-1.7 7.37 7.37 0 0 1-1.43-2.67c-.3-1.04-.46-2.2-.46-3.45V25.7h3.91v14.22c0 1.68.38 2.99 1.15 3.91.77.93 1.96 1.39 3.54 1.39 1.16 0 2.24-.27 3.23-.82a10.42 10.42 0 0 0 2.8-2.28V25.7h3.91zm8.61 4.47a9.94 9.94 0 0 1 2.6-3.56 5.64 5.64 0 0 1 3.76-1.3c.47 0 .92.05 1.34.15.44.1.83.27 1.17.49l-.3 2.92c-.09.37-.3.55-.66.55-.2 0-.5-.04-.9-.13a6.21 6.21 0 0 0-3.24.18 4.23 4.23 0 0 0-1.47.92c-.42.4-.81.9-1.17 1.5-.33.58-.64 1.26-.92 2.02V48H67.7V25.71h2.25c.42 0 .72.08.88.25.16.16.27.44.33.83l.26 3.39zm61.16-13.7L122.75 48h-3.82l-7.99-24.05a21.95 21.95 0 0 1-.42-1.58 38.36 38.36 0 0 1-.44 1.58L102.05 48h-3.83L88.4 16.47h3.54c.38 0 .7.1.95.29.26.2.43.43.5.73l6.52 21.9.28 1.28.29 1.46.3-1.46.38-1.27 7.41-21.91c.1-.25.26-.48.51-.69.27-.22.58-.33.95-.33h1.23c.38 0 .69.1.92.29a1.77 1.77 0 0 1 .53.73l7.4 21.9a28.4 28.4 0 0 1 .68 2.62 29.52 29.52 0 0 1 .52-2.61l6.54-21.91a1.31 1.31 0 0 1 .48-.7c.27-.21.58-.32.95-.32h3.32zm9.35 8.88c1.63 0 3.1.27 4.4.82a9.43 9.43 0 0 1 5.46 5.94c.5 1.4.74 2.98.74 4.73 0 1.76-.25 3.34-.74 4.75a9.43 9.43 0 0 1-5.46 5.92c-1.3.52-2.77.79-4.4.79-1.64 0-3.12-.27-4.44-.8a9.42 9.42 0 0 1-3.35-2.3c-.92-1-1.63-2.2-2.13-3.61-.49-1.41-.73-3-.73-4.75s.24-3.33.73-4.73c.5-1.43 1.2-2.64 2.13-3.63.93-1 2.04-1.77 3.35-2.31 1.32-.55 2.8-.82 4.44-.82zm0 19.89c2.2 0 3.84-.73 4.93-2.2 1.08-1.48 1.63-3.54 1.63-6.18 0-2.66-.55-4.72-1.63-6.2-1.09-1.49-2.73-2.23-4.93-2.23-1.12 0-2.09.2-2.93.57a5.71 5.71 0 0 0-2.06 1.65c-.55.72-.96 1.61-1.24 2.67-.26 1.04-.4 2.22-.4 3.54 0 2.64.55 4.7 1.64 6.18 1.1 1.47 2.76 2.2 4.99 2.2zm17.97-15.07a9.94 9.94 0 0 1 2.6-3.56 5.64 5.64 0 0 1 3.76-1.3c.47 0 .91.05 1.34.15.44.1.83.27 1.16.49l-.28 2.92c-.09.37-.31.55-.66.55-.2 0-.5-.04-.9-.13a6.2 6.2 0 0 0-3.24.18 4.23 4.23 0 0 0-1.47.92c-.43.4-.82.9-1.17 1.5a13.1 13.1 0 0 0-.92 2.02V48h-3.94V25.71h2.24c.43 0 .72.08.88.25.17.16.28.44.33.83l.27 3.39zm15.04-14.59V48h-3.92V15.6h3.92zm19.55 15.43a6.22 6.22 0 0 0-2.38-2.05 6.7 6.7 0 0 0-2.86-.6c-2.07 0-3.66.75-4.77 2.23-1.12 1.48-1.68 3.6-1.68 6.33 0 1.46.13 2.7.38 3.74a7.29 7.29 0 0 0 1.1 2.56 4.35 4.35 0 0 0 1.78 1.45c.7.3 1.5.46 2.4.46 1.29 0 2.41-.3 3.36-.88a9.6 9.6 0 0 0 2.67-2.49V31.02zm3.91-15.43V48h-2.33c-.56 0-.9-.27-1.06-.81l-.35-2.71a12.13 12.13 0 0 1-3.25 2.77 8.28 8.28 0 0 1-4.23 1.06 7.31 7.31 0 0 1-6.14-2.9c-.73-.96-1.3-2.15-1.69-3.57a18.35 18.35 0 0 1 .07-9.48 11.29 11.29 0 0 1 1.89-3.7 8.7 8.7 0 0 1 7.06-3.34 7.96 7.96 0 0 1 6.12 2.62V15.59h3.91zM46.61 70.71V93H42.7V70.71h3.91zm.84-7c0 .39-.08.75-.24 1.09-.15.32-.35.61-.62.88-.25.25-.55.44-.9.59a2.67 2.67 0 0 1-2.16 0 2.9 2.9 0 0 1-1.45-1.47 2.67 2.67 0 0 1 0-2.16c.15-.35.35-.65.6-.9.25-.27.53-.47.85-.62a2.67 2.67 0 0 1 2.16 0c.35.15.65.35.9.62.27.25.47.55.62.9.16.34.24.7.24 1.08zm7.97 10.24c.49-.54 1-1.04 1.54-1.48a9.85 9.85 0 0 1 3.66-1.84 8.96 8.96 0 0 1 5.43.35c.94.4 1.72.97 2.33 1.71.63.74 1.11 1.62 1.43 2.67.32 1.04.49 2.19.49 3.45V93h-3.94V78.81c0-1.69-.4-3-1.17-3.92-.76-.93-1.93-1.4-3.5-1.4-1.15 0-2.24.27-3.25.83-1 .56-1.92 1.31-2.77 2.27V93h-3.94V70.71h2.35c.56 0 .9.28 1.04.82l.3 2.42zm57.7 3.3c0 2.36-.37 4.5-1.11 6.44a14.3 14.3 0 0 1-3.17 4.98c-1.37 1.37-3 2.45-4.93 3.2-1.9.76-4.02 1.13-6.33 1.13H85.8V61.47h11.77c2.31 0 4.42.39 6.33 1.15a13.8 13.8 0 0 1 8.1 8.18 17.75 17.75 0 0 1 1.12 6.45zm-4.37 0c0-1.94-.26-3.67-.8-5.2a10.94 10.94 0 0 0-2.23-3.87 9.57 9.57 0 0 0-3.53-2.42 12.23 12.23 0 0 0-4.61-.83h-7.5v24.62h7.5c1.7 0 3.24-.28 4.61-.84a9.7 9.7 0 0 0 3.53-2.4 10.94 10.94 0 0 0 2.24-3.87c.53-1.53.8-3.26.8-5.2zm19.8 5.72c-1.8.06-3.34.2-4.62.44-1.26.22-2.3.51-3.1.88-.8.36-1.37.8-1.74 1.3-.35.5-.53 1.05-.53 1.67 0 .58.1 1.1.3 1.52a3 3 0 0 0 .76 1.05c.34.27.73.46 1.17.6a6.13 6.13 0 0 0 1.45.17 7.28 7.28 0 0 0 3.5-.81 11.95 11.95 0 0 0 2.82-2.2v-4.62zm-12.65-9.11a12.73 12.73 0 0 1 3.98-2.66c1.43-.59 3-.88 4.73-.88 1.25 0 2.36.2 3.33.61a6.81 6.81 0 0 1 3.94 4.38c.33 1.04.5 2.19.5 3.43V93h-1.74a1.8 1.8 0 0 1-.88-.18c-.2-.13-.36-.38-.48-.74l-.44-2.12-1.72 1.46a9.48 9.48 0 0 1-3.74 1.7c-.69.15-1.46.23-2.3.23-.87 0-1.69-.12-2.45-.35a5.34 5.34 0 0 1-3.34-2.93 6.64 6.64 0 0 1-.49-2.64c0-.88.25-1.72.73-2.53a6.33 6.33 0 0 1 2.35-2.17c1.09-.63 2.5-1.15 4.25-1.54 1.75-.41 3.89-.65 6.42-.7v-1.75c0-1.73-.37-3.03-1.12-3.91-.75-.9-1.84-1.34-3.28-1.34-.97 0-1.78.12-2.44.37-.64.23-1.2.5-1.7.81l-1.23.82c-.33.23-.67.35-1 .35-.27 0-.5-.07-.69-.2a2.1 2.1 0 0 1-.48-.53l-.7-1.25zm27.67 19.5c-1.76 0-3.12-.5-4.07-1.48-.94-.98-1.41-2.4-1.41-4.25V74h-2.68a.9.9 0 0 1-.6-.2c-.16-.14-.24-.36-.24-.66v-1.56l3.65-.46.9-6.89c.05-.22.14-.4.29-.52a.88.88 0 0 1 .62-.22H142v7.67h6.44V74H142v13.38c0 .94.22 1.63.68 2.09.45.45 1.04.68 1.76.68a3.21 3.21 0 0 0 1.85-.53l.55-.35c.16-.12.3-.18.41-.18.2 0 .4.13.55.38l1.15 1.87a7.45 7.45 0 0 1-2.44 1.5 8.53 8.53 0 0 1-2.95.52zm19.68-10.4c-1.8.07-3.34.21-4.62.45-1.26.22-2.3.51-3.1.88-.8.36-1.37.8-1.74 1.3-.35.5-.53 1.05-.53 1.67 0 .58.1 1.1.3 1.52a2.9 2.9 0 0 0 .76 1.05c.34.27.73.46 1.17.6a6.13 6.13 0 0 0 1.45.17 7.3 7.3 0 0 0 3.5-.81 12.04 12.04 0 0 0 2.82-2.2v-4.62zm-12.65-9.1a12.72 12.72 0 0 1 3.99-2.66c1.42-.59 3-.88 4.72-.88 1.25 0 2.36.2 3.33.61a6.81 6.81 0 0 1 3.94 4.38c.33 1.04.5 2.19.5 3.43V93h-1.74a1.8 1.8 0 0 1-.88-.18c-.2-.13-.36-.38-.48-.74l-.44-2.12-1.72 1.46a9.48 9.48 0 0 1-3.74 1.7c-.69.15-1.46.23-2.3.23-.87 0-1.69-.12-2.45-.35a5.33 5.33 0 0 1-3.34-2.93 6.62 6.62 0 0 1-.49-2.64c0-.88.25-1.72.73-2.53a6.33 6.33 0 0 1 2.35-2.17c1.09-.63 2.5-1.15 4.25-1.54 1.74-.41 3.89-.65 6.42-.7v-1.75c0-1.73-.37-3.03-1.12-3.91-.75-.9-1.84-1.34-3.28-1.34-.97 0-1.78.12-2.44.37-.64.23-1.2.5-1.7.81l-1.22.82c-.34.23-.68.35-1.02.35-.26 0-.49-.07-.68-.2a1.88 1.88 0 0 1-.48-.53l-.7-1.25zM40.98 32.25c0 2.36-.38 4.53-1.12 6.51a14.26 14.26 0 0 1-8.1 8.4c-1.9.78-4.02 1.17-6.34 1.17-2.31 0-4.42-.39-6.33-1.17a14.31 14.31 0 0 1-8.08-8.4 18.29 18.29 0 0 1-1.12-6.51c0-2.36.38-4.53 1.12-6.5.75-1.97 1.8-3.67 3.17-5.1a14.32 14.32 0 0 1 4.9-3.34c1.92-.8 4.03-1.19 6.34-1.19 2.32 0 4.43.4 6.34 1.19 1.92.8 3.56 1.9 4.93 3.34a14.87 14.87 0 0 1 3.17 5.1 18.1 18.1 0 0 1 1.12 6.5zm-4.38 0c0-1.94-.26-3.68-.8-5.22a10.91 10.91 0 0 0-2.24-3.89 9.68 9.68 0 0 0-3.52-2.46 11.95 11.95 0 0 0-4.62-.86c-1.68 0-3.21.28-4.6.86a9.88 9.88 0 0 0-3.54 2.46 10.91 10.91 0 0 0-2.24 3.9c-.53 1.53-.8 3.27-.8 5.2 0 1.94.27 3.68.8 5.22a11.17 11.17 0 0 0 2.24 3.9 10.01 10.01 0 0 0 3.55 2.44c1.38.56 2.9.83 4.6.83s3.24-.27 4.61-.83a9.8 9.8 0 0 0 3.52-2.44 11.17 11.17 0 0 0 2.25-3.9c.53-1.54.8-3.28.8-5.21zm26.22-6.54V48H60.5c-.56 0-.9-.27-1.05-.81l-.31-2.4a12.45 12.45 0 0 1-3.26 2.6c-1.2.64-2.58.96-4.13.96-1.22 0-2.3-.2-3.24-.6a6.52 6.52 0 0 1-2.33-1.7 7.37 7.37 0 0 1-1.43-2.67c-.3-1.04-.46-2.2-.46-3.45V25.7h3.91v14.22c0 1.68.38 2.99 1.15 3.91.77.93 1.96 1.39 3.54 1.39 1.16 0 2.24-.27 3.23-.82a10.42 10.42 0 0 0 2.8-2.28V25.7h3.91zm8.61 4.47a9.94 9.94 0 0 1 2.6-3.56 5.64 5.64 0 0 1 3.76-1.3c.47 0 .92.05 1.34.15.44.1.83.27 1.17.49l-.3 2.92c-.09.37-.3.55-.66.55-.2 0-.5-.04-.9-.13a6.21 6.21 0 0 0-3.24.18 4.23 4.23 0 0 0-1.47.92c-.42.4-.81.9-1.17 1.5-.33.58-.64 1.26-.92 2.02V48H67.7V25.71h2.25c.42 0 .72.08.88.25.16.16.27.44.33.83l.26 3.39zm61.16-13.7L122.75 48h-3.82l-7.99-24.05a21.95 21.95 0 0 1-.42-1.58 38.36 38.36 0 0 1-.44 1.58L102.05 48h-3.83L88.4 16.47h3.54c.38 0 .7.1.95.29.26.2.43.43.5.73l6.52 21.9.28 1.28.29 1.46.3-1.46.38-1.27 7.41-21.91c.1-.25.26-.48.51-.69.27-.22.58-.33.95-.33h1.23c.38 0 .69.1.92.29a1.77 1.77 0 0 1 .53.73l7.4 21.9a28.4 28.4 0 0 1 .68 2.62 29.52 29.52 0 0 1 .52-2.61l6.54-21.91a1.31 1.31 0 0 1 .48-.7c.27-.21.58-.32.95-.32h3.32zm9.35 8.88c1.63 0 3.1.27 4.4.82a9.43 9.43 0 0 1 5.46 5.94c.5 1.4.74 2.98.74 4.73 0 1.76-.25 3.34-.74 4.75a9.43 9.43 0 0 1-5.46 5.92c-1.3.52-2.77.79-4.4.79-1.64 0-3.12-.27-4.44-.8a9.42 9.42 0 0 1-3.35-2.3c-.92-1-1.63-2.2-2.13-3.61-.49-1.41-.73-3-.73-4.75s.24-3.33.73-4.73c.5-1.43 1.2-2.64 2.13-3.63.93-1 2.04-1.77 3.35-2.31 1.32-.55 2.8-.82 4.44-.82zm0 19.89c2.2 0 3.84-.73 4.93-2.2 1.08-1.48 1.63-3.54 1.63-6.18 0-2.66-.55-4.72-1.63-6.2-1.09-1.49-2.73-2.23-4.93-2.23-1.12 0-2.09.2-2.93.57a5.71 5.71 0 0 0-2.06 1.65c-.55.72-.96 1.61-1.24 2.67-.26 1.04-.4 2.22-.4 3.54 0 2.64.55 4.7 1.64 6.18 1.1 1.47 2.76 2.2 4.99 2.2zm17.97-15.07a9.94 9.94 0 0 1 2.6-3.56 5.64 5.64 0 0 1 3.76-1.3c.47 0 .91.05 1.34.15.44.1.83.27 1.16.49l-.28 2.92c-.09.37-.31.55-.66.55-.2 0-.5-.04-.9-.13a6.2 6.2 0 0 0-3.24.18 4.23 4.23 0 0 0-1.47.92c-.43.4-.82.9-1.17 1.5a13.1 13.1 0 0 0-.92 2.02V48h-3.94V25.71h2.24c.43 0 .72.08.88.25.17.16.28.44.33.83l.27 3.39zm15.04-14.59V48h-3.92V15.6h3.92zm19.55 15.43a6.22 6.22 0 0 0-2.38-2.05 6.7 6.7 0 0 0-2.86-.6c-2.07 0-3.66.75-4.77 2.23-1.12 1.48-1.68 3.6-1.68 6.33 0 1.46.13 2.7.38 3.74a7.29 7.29 0 0 0 1.1 2.56 4.35 4.35 0 0 0 1.78 1.45c.7.3 1.5.46 2.4.46 1.29 0 2.41-.3 3.36-.88a9.6 9.6 0 0 0 2.67-2.49V31.02zm3.91-15.43V48h-2.33c-.56 0-.9-.27-1.06-.81l-.35-2.71a12.13 12.13 0 0 1-3.25 2.77 8.28 8.28 0 0 1-4.23 1.06 7.31 7.31 0 0 1-6.14-2.9c-.73-.96-1.3-2.15-1.69-3.57a18.35 18.35 0 0 1 .07-9.48 11.29 11.29 0 0 1 1.89-3.7 8.7 8.7 0 0 1 7.06-3.34 7.96 7.96 0 0 1 6.12 2.62V15.59h3.91zM46.61 70.71V93H42.7V70.71h3.91zm.84-7c0 .39-.08.75-.24 1.09-.15.32-.35.61-.62.88-.25.25-.55.44-.9.59a2.67 2.67 0 0 1-2.16 0 2.9 2.9 0 0 1-1.45-1.47 2.67 2.67 0 0 1 0-2.16c.15-.35.35-.65.6-.9.25-.27.53-.47.85-.62a2.67 2.67 0 0 1 2.16 0c.35.15.65.35.9.62.27.25.47.55.62.9.16.34.24.7.24 1.08zm7.97 10.24c.49-.54 1-1.04 1.54-1.48a9.85 9.85 0 0 1 3.66-1.84 8.96 8.96 0 0 1 5.43.35c.94.4 1.72.97 2.33 1.71.63.74 1.11 1.62 1.43 2.67.32 1.04.49 2.19.49 3.45V93h-3.94V78.81c0-1.69-.4-3-1.17-3.92-.76-.93-1.93-1.4-3.5-1.4-1.15 0-2.24.27-3.25.83-1 .56-1.92 1.31-2.77 2.27V93h-3.94V70.71h2.35c.56 0 .9.28 1.04.82l.3 2.42zm57.7 3.3c0 2.36-.37 4.5-1.11 6.44a14.3 14.3 0 0 1-3.17 4.98c-1.37 1.37-3 2.45-4.93 3.2-1.9.76-4.02 1.13-6.33 1.13H85.8V61.47h11.77c2.31 0 4.42.39 6.33 1.15a13.8 13.8 0 0 1 8.1 8.18 17.75 17.75 0 0 1 1.12 6.45zm-4.37 0c0-1.94-.26-3.67-.8-5.2a10.94 10.94 0 0 0-2.23-3.87 9.57 9.57 0 0 0-3.53-2.42 12.23 12.23 0 0 0-4.61-.83h-7.5v24.62h7.5c1.7 0 3.24-.28 4.61-.84a9.7 9.7 0 0 0 3.53-2.4 10.94 10.94 0 0 0 2.24-3.87c.53-1.53.8-3.26.8-5.2zm19.8 5.72c-1.8.06-3.34.2-4.62.44-1.26.22-2.3.51-3.1.88-.8.36-1.37.8-1.74 1.3-.35.5-.53 1.05-.53 1.67 0 .58.1 1.1.3 1.52a3 3 0 0 0 .76 1.05c.34.27.73.46 1.17.6a6.13 6.13 0 0 0 1.45.17 7.28 7.28 0 0 0 3.5-.81 11.95 11.95 0 0 0 2.82-2.2v-4.62zm-12.65-9.11a12.73 12.73 0 0 1 3.98-2.66c1.43-.59 3-.88 4.73-.88 1.25 0 2.36.2 3.33.61a6.81 6.81 0 0 1 3.94 4.38c.33 1.04.5 2.19.5 3.43V93h-1.74a1.8 1.8 0 0 1-.88-.18c-.2-.13-.36-.38-.48-.74l-.44-2.12-1.72 1.46a9.48 9.48 0 0 1-3.74 1.7c-.69.15-1.46.23-2.3.23-.87 0-1.69-.12-2.45-.35a5.34 5.34 0 0 1-3.34-2.93 6.64 6.64 0 0 1-.49-2.64c0-.88.25-1.72.73-2.53a6.33 6.33 0 0 1 2.35-2.17c1.09-.63 2.5-1.15 4.25-1.54 1.75-.41 3.89-.65 6.42-.7v-1.75c0-1.73-.37-3.03-1.12-3.91-.75-.9-1.84-1.34-3.28-1.34-.97 0-1.78.12-2.44.37-.64.23-1.2.5-1.7.81l-1.23.82c-.33.23-.67.35-1 .35-.27 0-.5-.07-.69-.2a2.1 2.1 0 0 1-.48-.53l-.7-1.25zm27.67 19.5c-1.76 0-3.12-.5-4.07-1.48-.94-.98-1.41-2.4-1.41-4.25V74h-2.68a.9.9 0 0 1-.6-.2c-.16-.14-.24-.36-.24-.66v-1.56l3.65-.46.9-6.89c.05-.22.14-.4.29-.52a.88.88 0 0 1 .62-.22H142v7.67h6.44V74H142v13.38c0 .94.22 1.63.68 2.09.45.45 1.04.68 1.76.68a3.21 3.21 0 0 0 1.85-.53l.55-.35c.16-.12.3-.18.41-.18.2 0 .4.13.55.38l1.15 1.87a7.45 7.45 0 0 1-2.44 1.5 8.53 8.53 0 0 1-2.95.52zm19.68-10.4c-1.8.07-3.34.21-4.62.45-1.26.22-2.3.51-3.1.88-.8.36-1.37.8-1.74 1.3-.35.5-.53 1.05-.53 1.67 0 .58.1 1.1.3 1.52a2.9 2.9 0 0 0 .76 1.05c.34.27.73.46 1.17.6a6.13 6.13 0 0 0 1.45.17 7.3 7.3 0 0 0 3.5-.81 12.04 12.04 0 0 0 2.82-2.2v-4.62zm-12.65-9.1a12.72 12.72 0 0 1 3.99-2.66c1.42-.59 3-.88 4.72-.88 1.25 0 2.36.2 3.33.61a6.81 6.81 0 0 1 3.94 4.38c.33 1.04.5 2.19.5 3.43V93h-1.74a1.8 1.8 0 0 1-.88-.18c-.2-.13-.36-.38-.48-.74l-.44-2.12-1.72 1.46a9.48 9.48 0 0 1-3.74 1.7c-.69.15-1.46.23-2.3.23-.87 0-1.69-.12-2.45-.35a5.33 5.33 0 0 1-3.34-2.93 6.62 6.62 0 0 1-.49-2.64c0-.88.25-1.72.73-2.53a6.33 6.33 0 0 1 2.35-2.17c1.09-.63 2.5-1.15 4.25-1.54 1.74-.41 3.89-.65 6.42-.7v-1.75c0-1.73-.37-3.03-1.12-3.91-.75-.9-1.84-1.34-3.28-1.34-.97 0-1.78.12-2.44.37-.64.23-1.2.5-1.7.81l-1.22.82c-.34.23-.68.35-1.02.35-.26 0-.49-.07-.68-.2a1.88 1.88 0 0 1-.48-.53l-.7-1.25z"
    fill="#fff"
  />
  <path fill="#D42B21" d="M0 106.79h210V120H0z" />
</g>
<defs>
  <clipPath id="clip0"><path fill="#fff" d="M0 0h210v120H0z" /></clipPath>
</defs>
</svg></g><a href="https://ourworldindata.org/grapher/electricity-prod-source-stacked?country=~SWE" style="font-family:&quot;Playfair Display&quot;, Georgia, &quot;Times New Roman&quot;, serif" target="_blank" rel="noopener"><text font-size="25.20" x="15.0" y="35.2" fill="#555"><tspan x="15" y="35.160000000000004">Electricity production by source, Sweden</tspan></text></a></g><g class="StackedArea"><defs><clipPath id="boundsClip-17"><rect x="85.934" y="68" width="820" height="873"></rect></clipPath></defs><rect x="15" y="68" width="820" height="436.5" fill="transparent"></rect><g class="DualAxisView"><g class="HorizontalAxis"><line x1="85.9" y1="483.3" x2="85.9" y2="488.3" stroke="#999"></line><line x1="727" y1="483.3" x2="727" y2="488.3" stroke="#999"></line><line x1="189.3" y1="483.3" x2="189.3" y2="488.3" stroke="#999"></line><line x1="292.7" y1="483.3" x2="292.7" y2="488.3" stroke="#999"></line><line x1="396.1" y1="483.3" x2="396.1" y2="488.3" stroke="#999"></line><line x1="499.5" y1="483.3" x2="499.5" y2="488.3" stroke="#999"></line><line x1="602.9" y1="483.3" x2="602.9" y2="488.3" stroke="#999"></line><text x="85.934" y="504.5" fill="#666" text-anchor="start" font-size="16.2">1990</text><text x="726.965" y="504.5" fill="#666" text-anchor="end" font-size="16.2">2021</text><text x="189.3" y="504.5" fill="#666" text-anchor="middle" font-size="16.2">1995</text><text x="292.7" y="504.5" fill="#666" text-anchor="middle" font-size="16.2">2000</text><text x="396.1" y="504.5" fill="#666" text-anchor="middle" font-size="16.2">2005</text><text x="499.5" y="504.5" fill="#666" text-anchor="middle" font-size="16.2">2010</text><text x="602.9" y="504.5" fill="#666" text-anchor="middle" font-size="16.2">2015</text></g><g class="VerticalAxis"><text x="80.93" y="483.3" dy=".32em" text-anchor="end" fill="#666" font-size="16.2">0 TWh</text><text x="80.93" y="434.7" dy=".32em" text-anchor="end" fill="#666" font-size="16.2">20 TWh</text><text x="80.93" y="386.2" dy=".32em" text-anchor="end" fill="#666" font-size="16.2">40 TWh</text><text x="80.93" y="337.6" dy=".32em" text-anchor="end" fill="#666" font-size="16.2">60 TWh</text><text x="80.93" y="289.1" dy=".32em" text-anchor="end" fill="#666" font-size="16.2">80 TWh</text><text x="80.93" y="240.5" dy=".32em" text-anchor="end" fill="#666" font-size="16.2">100 TWh</text><text x="80.93" y="192" dy=".32em" text-anchor="end" fill="#666" font-size="16.2">120 TWh</text><text x="80.93" y="143.4" dy=".32em" text-anchor="end" fill="#666" font-size="16.2">140 TWh</text><text x="80.93" y="94.9" dy=".32em" text-anchor="end" fill="#666" font-size="16.2">160 TWh</text></g><g class="AxisGridLines horizontalLines"><line x1="85.93" y1="483.3" x2="726.97" y2="483.3" stroke="#999"></line><line x1="85.93" y1="434.7" x2="726.97" y2="434.7" stroke="#ddd" stroke-dasharray="3,2"></line><line x1="85.93" y1="386.2" x2="726.97" y2="386.2" stroke="#ddd" stroke-dasharray="3,2"></line><line x1="85.93" y1="337.6" x2="726.97" y2="337.6" stroke="#ddd" stroke-dasharray="3,2"></line><line x1="85.93" y1="289.1" x2="726.97" y2="289.1" stroke="#ddd" stroke-dasharray="3,2"></line><line x1="85.93" y1="240.5" x2="726.97" y2="240.5" stroke="#ddd" stroke-dasharray="3,2"></line><line x1="85.93" y1="192" x2="726.97" y2="192" stroke="#ddd" stroke-dasharray="3,2"></line><line x1="85.93" y1="143.4" x2="726.97" y2="143.4" stroke="#ddd" stroke-dasharray="3,2"></line><line x1="85.93" y1="94.9" x2="726.97" y2="94.9" stroke="#ddd" stroke-dasharray="3,2"></line></g></g><g clip-path="url(#boundsClip-17)"><g class="LineLabels" style="cursor:default"><g class="legendMark"><g class="indicator"><path d="M730.965,84.2 H751.215 V96.65 H757.965" stroke="#999" stroke-width="0.5" fill="none"></path></g><rect x="726.965" y="68" width="108.03500000000001" height="57.3" fill="#fff" opacity="0"></rect><text font-size="13.50" font-weight="400" x="762.0" y="78.8" fill="#00823f"><tspan x="761.965" y="78.8">Other</tspan><tspan x="761.965" y="93.65">renewables,</tspan><tspan x="761.965" y="108.5">including</tspan><tspan x="761.965" y="123.35">bioenergy</tspan></text></g><g class="legendMark"><g class="indicator"><path d="M730.965,101.6 H744.465 V134.05 H757.965" stroke="#999" stroke-width="0.5" fill="none"></path></g><rect x="726.965" y="127.3" width="66.59" height="13.5" fill="#fff" opacity="0"></rect><text font-size="13.50" font-weight="400" x="762.0" y="138.1" fill="#c55e0b"><tspan x="761.965" y="138.10000000000002">Solar</tspan></text></g><g class="legendMark"><g class="indicator"><path d="M730.965,136.1 H737.715 V149.55 H757.965" stroke="#999" stroke-width="0.5" fill="none"></path></g><rect x="726.965" y="142.8" width="65.78" height="13.5" fill="#fff" opacity="0"></rect><text font-size="13.50" font-weight="400" x="762.0" y="153.6" fill="#c45267"><tspan x="761.965" y="153.60000000000002">Wind</tspan></text></g><g class="legendMark"><g class="indicator"><path d="M730.965,258.4 H744.465 V258.4 H757.965" stroke="#999" stroke-width="0.5" fill="none"></path></g><rect x="726.965" y="251.64999999999998" width="107.9" height="13.5" fill="#fff" opacity="0"></rect><text font-size="13.50" font-weight="400" x="762.0" y="262.4" fill="#0f739c"><tspan x="761.965" y="262.45">Hydropower</tspan></text></g><g class="legendMark"><g class="indicator"><path d="M730.965,412.5 H744.465 V412.5 H757.965" stroke="#999" stroke-width="0.5" fill="none"></path></g><rect x="726.965" y="405.75" width="81.575" height="13.5" fill="#fff" opacity="0"></rect><text font-size="13.50" font-weight="400" x="762.0" y="416.6" fill="#6d3e91"><tspan x="761.965" y="416.55">Nuclear</tspan></text></g><g class="legendMark"><g class="indicator"><path d="M730.965,480.2 H737.715 V445.55 H757.965" stroke="#999" stroke-width="0.5" fill="none"></path></g><rect x="726.965" y="438.8" width="51.47" height="13.5" fill="#fff" opacity="0"></rect><text font-size="13.50" font-weight="400" x="762.0" y="449.6" fill="#b36216"><tspan x="761.965" y="449.6">Oil</tspan></text></g><g class="legendMark"><g class="indicator"><path d="M730.965,483.2 H744.465 V461.05 H757.965" stroke="#999" stroke-width="0.5" fill="none"></path></g><rect x="726.965" y="454.3" width="59.84" height="13.5" fill="#fff" opacity="0"></rect><text font-size="13.50" font-weight="400" x="762.0" y="465.1" fill="#c21d0b"><tspan x="761.965" y="465.1">Gas</tspan></text></g><g class="legendMark"><g class="indicator"><path d="M730.965,483.3 H751.215 V476.55 H757.965" stroke="#999" stroke-width="0.5" fill="none"></path></g><rect x="726.965" y="469.8" width="62.81" height="13.5" fill="#fff" opacity="0"></rect><text font-size="13.50" font-weight="400" x="762.0" y="480.6" fill="#585c64"><tspan x="761.965" y="480.6">Coal</tspan></text></g></g><g class="Areas"><rect x="85.934" y="68" width="641.0310000000001" height="415.3" opacity="0" fill="rgba(255,255,255,0)"></rect><path class="Coal-area" stroke-linecap="round" d="M85.9 480.7L106.6 478.5L127.3 478.9L148 478.3L168.6 477L189.3 477.8L210 474.3L230.7 478.4L251.4 478.3L272 477.9L292.7 479.3L313.4 478.7L334.1 477.5L354.8 476.4L375.4 480.8L396.1 481.7L416.8 481.2L437.5 481.7L458.1 482.1L478.8 482.1L499.5 480.8L520.2 481.7L540.9 482.1L561.5 481.7L582.2 482.4L602.9 482.4L623.6 482.7L644.3 482.5L664.9 482.5L685.6 482.8L706.3 483.3L727 483.3L726.965 483.3L85.934 483.3" fill="#585c64" fill-opacity="0.7"></path><path class="Gas-area" stroke-linecap="round" d="M85.9 479.7L106.6 477.1L127.3 477L148 476L168.6 474.9L189.3 475.7L210 472.7L230.7 476.8L251.4 477.1L272 476.8L292.7 478.2L313.4 477.8L334.1 476.2L354.8 474.6L375.4 479L396.1 480.3L416.8 479.7L437.5 479.7L458.1 480.6L478.8 478.3L499.5 473.8L520.2 477.9L540.9 479.9L561.5 479.7L582.2 481.4L602.9 481.3L623.6 481L644.3 481.7L664.9 481.6L685.6 482.1L706.3 483.1L727 483.1L727 483.3L706.3 483.3L685.6 482.8L664.9 482.5L644.3 482.5L623.6 482.7L602.9 482.4L582.2 482.4L561.5 481.7L540.9 482.1L520.2 481.7L499.5 480.8L478.8 482.1L458.1 482.1L437.5 481.7L416.8 481.2L396.1 481.7L375.4 480.8L354.8 476.4L334.1 477.5L313.4 478.7L292.7 479.3L272 477.9L251.4 478.3L230.7 478.4L210 474.3L189.3 477.8L168.6 477L148 478.3L127.3 478.9L106.6 478.5L85.9 480.7" fill="#c21d0b" fill-opacity="0.7"></path><path class="Oil-area" stroke-linecap="round" d="M85.9 475.2L106.6 470.9L127.3 468.7L148 466.3L168.6 463.5L189.3 464.4L210 453.3L230.7 465.7L251.4 466L272 466.5L292.7 471.7L313.4 468.3L334.1 465.2L354.8 460.9L375.4 468.7L396.1 471.7L416.8 470.6L437.5 472.6L458.1 472.1L478.8 472.1L499.5 462.6L520.2 469.4L540.9 473.4L561.5 473.9L582.2 476.2L602.9 475.7L623.6 474.4L644.3 474.9L664.9 474.4L685.6 475.2L706.3 477.4L727 477.4L727 483.1L706.3 483.1L685.6 482.1L664.9 481.6L644.3 481.7L623.6 481L602.9 481.3L582.2 481.4L561.5 479.7L540.9 479.9L520.2 477.9L499.5 473.8L478.8 478.3L458.1 480.6L437.5 479.7L416.8 479.7L396.1 480.3L375.4 479L354.8 474.6L334.1 476.2L313.4 477.8L292.7 478.2L272 476.8L251.4 477.1L230.7 476.8L210 472.7L189.3 475.7L168.6 474.9L148 476L127.3 477L106.6 477.1L85.9 479.7" fill="#b36216" fill-opacity="0.7"></path><path class="Nuclear-area" stroke-linecap="round" d="M85.9 309.6L106.6 284.6L127.3 314.4L148 317.3L168.6 285.9L189.3 294.6L210 273L230.7 295.9L251.4 287.4L272 288.9L292.7 332.6L313.4 293.3L334.1 299.9L354.8 297.2L375.4 280.6L396.1 296L416.8 308L437.5 310L458.1 317L478.8 345.4L499.5 322.2L520.2 322.6L540.9 317.9L561.5 312.5L582.2 318.7L602.9 338.9L623.6 321.2L644.3 315.4L664.9 308L685.6 314.6L706.3 357.9L727 347.6L727 477.4L706.3 477.4L685.6 475.2L664.9 474.4L644.3 474.9L623.6 474.4L602.9 475.7L582.2 476.2L561.5 473.9L540.9 473.4L520.2 469.4L499.5 462.6L478.8 472.1L458.1 472.1L437.5 472.6L416.8 470.6L396.1 471.7L375.4 468.7L354.8 460.9L334.1 465.2L313.4 468.3L292.7 471.7L272 466.5L251.4 466L230.7 465.7L210 453.3L189.3 464.4L168.6 463.5L148 466.3L127.3 468.7L106.6 470.9L85.9 475.2" fill="#6d3e91" fill-opacity="0.7"></path><path class="Hydropower-area" stroke-linecap="round" d="M85.9 133.6L106.6 131L127.3 134L148 136L168.6 142.5L189.3 129.3L210 147.4L230.7 128.3L251.4 105.3L272 114.8L292.7 141.8L313.4 101.3L334.1 138.8L354.8 167.2L375.4 134.6L396.1 119.3L416.8 158.1L437.5 149.4L458.1 149.4L478.8 185.6L499.5 161L520.2 161.3L540.9 126.3L561.5 163.6L582.2 163.9L602.9 156L623.6 170.7L644.3 157.2L664.9 157L685.6 155.9L706.3 182.2L727 169.2L727 347.6L706.3 357.9L685.6 314.6L664.9 308L644.3 315.4L623.6 321.2L602.9 338.9L582.2 318.7L561.5 312.5L540.9 317.9L520.2 322.6L499.5 322.2L478.8 345.4L458.1 317L437.5 310L416.8 308L396.1 296L375.4 280.6L354.8 297.2L334.1 299.9L313.4 293.3L292.7 332.6L272 288.9L251.4 287.4L230.7 295.9L210 273L189.3 294.6L168.6 285.9L148 317.3L127.3 314.4L106.6 284.6L85.9 309.6" fill="#0f739c" fill-opacity="0.7"></path><path class="Wind-area" stroke-linecap="round" d="M85.9 133.6L106.6 131L127.3 133.9L148 135.9L168.6 142.3L189.3 129L210 147.1L230.7 127.8L251.4 104.6L272 114L292.7 140.7L313.4 100.2L334.1 137.3L354.8 165.6L375.4 132.5L396.1 117L416.8 155.8L437.5 145.9L458.1 144.5L478.8 179.5L499.5 152.5L520.2 146.5L540.9 108.9L561.5 139.7L582.2 136.6L602.9 116.4L623.6 133.1L644.3 114.5L664.9 116.6L685.6 107.7L706.3 115.4L727 102.9L727 169.2L706.3 182.2L685.6 155.9L664.9 157L644.3 157.2L623.6 170.7L602.9 156L582.2 163.9L561.5 163.6L540.9 126.3L520.2 161.3L499.5 161L478.8 185.6L458.1 149.4L437.5 149.4L416.8 158.1L396.1 119.3L375.4 134.6L354.8 167.2L334.1 138.8L313.4 101.3L292.7 141.8L272 114.8L251.4 105.3L230.7 128.3L210 147.4L189.3 129.3L168.6 142.5L148 136L127.3 134L106.6 131L85.9 133.6" fill="#c45267" fill-opacity="0.7"></path><path class="Solar-area" stroke-linecap="round" d="M85.9 133.6L106.6 131L127.3 133.9L148 135.9L168.6 142.3L189.3 129L210 147.1L230.7 127.8L251.4 104.6L272 114L292.7 140.7L313.4 100.2L334.1 137.3L354.8 165.6L375.4 132.5L396.1 117L416.8 155.8L437.5 145.9L458.1 144.5L478.8 179.5L499.5 152.5L520.2 146.5L540.9 108.9L561.5 139.6L582.2 136.5L602.9 116.2L623.6 132.7L644.3 113.9L664.9 115.6L685.6 106.1L706.3 112.8L727 100.4L727 102.9L706.3 115.4L685.6 107.7L664.9 116.6L644.3 114.5L623.6 133.1L602.9 116.4L582.2 136.6L561.5 139.7L540.9 108.9L520.2 146.5L499.5 152.5L478.8 179.5L458.1 144.5L437.5 145.9L416.8 155.8L396.1 117L375.4 132.5L354.8 165.6L334.1 137.3L313.4 100.2L292.7 140.7L272 114L251.4 104.6L230.7 127.8L210 147.1L189.3 129L168.6 142.3L148 135.9L127.3 133.9L106.6 131L85.9 133.6" fill="#c55e0b" fill-opacity="0.7"></path><path class="Other-renewables__002c-including-bioenergy-area" stroke-linecap="round" d="M85.9 128.9L106.6 126.5L127.3 129L148 130.7L168.6 136.9L189.3 123.3L210 141.9L230.7 121.1L251.4 97.8L272 107.4L292.7 130.7L313.4 91L334.1 127.2L354.8 154.6L375.4 115L396.1 98.8L416.8 135.5L437.5 122L458.1 119.4L478.8 151.7L499.5 122.9L520.2 118.5L540.9 79.3L561.5 111.8L582.2 110.5L602.9 90L623.6 104.9L644.3 84.6L664.9 86.7L685.6 74.4L706.3 85.7L727 68L727 100.4L706.3 112.8L685.6 106.1L664.9 115.6L644.3 113.9L623.6 132.7L602.9 116.2L582.2 136.5L561.5 139.6L540.9 108.9L520.2 146.5L499.5 152.5L478.8 179.5L458.1 144.5L437.5 145.9L416.8 155.8L396.1 117L375.4 132.5L354.8 165.6L334.1 137.3L313.4 100.2L292.7 140.7L272 114L251.4 104.6L230.7 127.8L210 147.1L189.3 129L168.6 142.3L148 135.9L127.3 133.9L106.6 131L85.9 133.6" fill="#00823f" fill-opacity="0.7"></path><path class="Coal-border" stroke-linecap="round" d="M85.9 480.7L106.6 478.5L127.3 478.9L148 478.3L168.6 477L189.3 477.8L210 474.3L230.7 478.4L251.4 478.3L272 477.9L292.7 479.3L313.4 478.7L334.1 477.5L354.8 476.4L375.4 480.8L396.1 481.7L416.8 481.2L437.5 481.7L458.1 482.1L478.8 482.1L499.5 480.8L520.2 481.7L540.9 482.1L561.5 481.7L582.2 482.4L602.9 482.4L623.6 482.7L644.3 482.5L664.9 482.5L685.6 482.8L706.3 483.3L727 483.3" stroke="rgb(74, 77, 84)" stroke-opacity="0.7" stroke-width="0.5" fill="none"></path><path class="Gas-border" stroke-linecap="round" d="M85.9 479.7L106.6 477.1L127.3 477L148 476L168.6 474.9L189.3 475.7L210 472.7L230.7 476.8L251.4 477.1L272 476.8L292.7 478.2L313.4 477.8L334.1 476.2L354.8 474.6L375.4 479L396.1 480.3L416.8 479.7L437.5 479.7L458.1 480.6L478.8 478.3L499.5 473.8L520.2 477.9L540.9 479.9L561.5 479.7L582.2 481.4L602.9 481.3L623.6 481L644.3 481.7L664.9 481.6L685.6 482.1L706.3 483.1L727 483.1" stroke="rgb(162, 24, 9)" stroke-opacity="0.7" stroke-width="0.5" fill="none"></path><path class="Oil-border" stroke-linecap="round" d="M85.9 475.2L106.6 470.9L127.3 468.7L148 466.3L168.6 463.5L189.3 464.4L210 453.3L230.7 465.7L251.4 466L272 466.5L292.7 471.7L313.4 468.3L334.1 465.2L354.8 460.9L375.4 468.7L396.1 471.7L416.8 470.6L437.5 472.6L458.1 472.1L478.8 472.1L499.5 462.6L520.2 469.4L540.9 473.4L561.5 473.9L582.2 476.2L602.9 475.7L623.6 474.4L644.3 474.9L664.9 474.4L685.6 475.2L706.3 477.4L727 477.4" stroke="rgb(150, 82, 18)" stroke-opacity="0.7" stroke-width="0.5" fill="none"></path><path class="Nuclear-border" stroke-linecap="round" d="M85.9 309.6L106.6 284.6L127.3 314.4L148 317.3L168.6 285.9L189.3 294.6L210 273L230.7 295.9L251.4 287.4L272 288.9L292.7 332.6L313.4 293.3L334.1 299.9L354.8 297.2L375.4 280.6L396.1 296L416.8 308L437.5 310L458.1 317L478.8 345.4L499.5 322.2L520.2 322.6L540.9 317.9L561.5 312.5L582.2 318.7L602.9 338.9L623.6 321.2L644.3 315.4L664.9 308L685.6 314.6L706.3 357.9L727 347.6" stroke="rgb(91, 52, 121)" stroke-opacity="0.7" stroke-width="0.5" fill="none"></path><path class="Hydropower-border" stroke-linecap="round" d="M85.9 133.6L106.6 131L127.3 134L148 136L168.6 142.5L189.3 129.3L210 147.4L230.7 128.3L251.4 105.3L272 114.8L292.7 141.8L313.4 101.3L334.1 138.8L354.8 167.2L375.4 134.6L396.1 119.3L416.8 158.1L437.5 149.4L458.1 149.4L478.8 185.6L499.5 161L520.2 161.3L540.9 126.3L561.5 163.6L582.2 163.9L602.9 156L623.6 170.7L644.3 157.2L664.9 157L685.6 155.9L706.3 182.2L727 169.2" stroke="rgb(13, 96, 131)" stroke-opacity="0.7" stroke-width="0.5" fill="none"></path><path class="Wind-border" stroke-linecap="round" d="M85.9 133.6L106.6 131L127.3 133.9L148 135.9L168.6 142.3L189.3 129L210 147.1L230.7 127.8L251.4 104.6L272 114L292.7 140.7L313.4 100.2L334.1 137.3L354.8 165.6L375.4 132.5L396.1 117L416.8 155.8L437.5 145.9L458.1 144.5L478.8 179.5L499.5 152.5L520.2 146.5L540.9 108.9L561.5 139.7L582.2 136.6L602.9 116.4L623.6 133.1L644.3 114.5L664.9 116.6L685.6 107.7L706.3 115.4L727 102.9" stroke="rgb(164, 69, 86)" stroke-opacity="0.7" stroke-width="0.5" fill="none"></path><path class="Solar-border" stroke-linecap="round" d="M85.9 133.6L106.6 131L127.3 133.9L148 135.9L168.6 142.3L189.3 129L210 147.1L230.7 127.8L251.4 104.6L272 114L292.7 140.7L313.4 100.2L334.1 137.3L354.8 165.6L375.4 132.5L396.1 117L416.8 155.8L437.5 145.9L458.1 144.5L478.8 179.5L499.5 152.5L520.2 146.5L540.9 108.9L561.5 139.6L582.2 136.5L602.9 116.2L623.6 132.7L644.3 113.9L664.9 115.6L685.6 106.1L706.3 112.8L727 100.4" stroke="rgb(165, 79, 9)" stroke-opacity="0.7" stroke-width="0.5" fill="none"></path><path class="Other-renewables__002c-including-bioenergy-border" stroke-linecap="round" d="M85.9 128.9L106.6 126.5L127.3 129L148 130.7L168.6 136.9L189.3 123.3L210 141.9L230.7 121.1L251.4 97.8L272 107.4L292.7 130.7L313.4 91L334.1 127.2L354.8 154.6L375.4 115L396.1 98.8L416.8 135.5L437.5 122L458.1 119.4L478.8 151.7L499.5 122.9L520.2 118.5L540.9 79.3L561.5 111.8L582.2 110.5L602.9 90L623.6 104.9L644.3 84.6L664.9 86.7L685.6 74.4L706.3 85.7L727 68" stroke="rgb(0, 109, 53)" stroke-opacity="0.7" stroke-width="0.5" fill="none"></path></g></g></g><g class="SourcesFooter" style="fill:#777"><g style="fill:#777"><text font-size="12.60" x="15.0" y="539.6"><tspan x="15" y="539.58">Source: Our World in Data based on BP Statistical Review of World Energy, Ember Global Electricity Review (2022) &amp; Ember European</tspan><tspan x="15" y="553.44">Electricity Review (2022)</tspan></text></g><text font-size="12.60" x="15.0" y="567.9"><tspan x="15" y="567.88">Note: &#x27;Other renewables&#x27; includes biomass and waste, geothermal, wave and tidal.</tspan></text><text font-size="12.60" x="15.0" y="582.5"><tspan x="15" y="582.48"><a target='_blank' style='fill: #777;' href='https://ourworldindata.org/energy'>OurWorldInData.org/energy</a> • <a style="fill: #777;" class="cclogo" href="http://creativecommons.org/licenses/by/4.0/deed.en_US" target="_blank">CC BY</a></tspan></text></g></svg>