<svg xmlns="http://www.w3.org/2000/svg" version="1.1" style="font-family:Lato, &#x27;Helvetica Neue&#x27;, Helvetica, Arial, sans-serif;font-size:18px;background-color:white;text-rendering:geometricPrecision;-webkit-font-smoothing:antialiased" width="850" height="600" viewBox="0 0 850 600"><g class="HeaderView"><g transform="translate(774, 15) scale(0.29)"><svg className="owidLog" width="210" height="120" viewBox="0 0 210 120" fill="none" xmlns="http://www.w3.org/2000/svg">
<g clip-path="url(#clip0)">
  <path d="M0 0h210v107.89H0V0z" fill="#002147" />
  <path
    d="M40.98 32.25c0 2.36-.38 4.53-1.12 6.51a14.26 14.26 0 0 1-8.1 8.4c-1.9.78-4.02 1.17-6.34 1.17-2.31 0-4.42-.39-6.33-1.17a14.31 14.31 0 0 1-8.08-8.4 18.29 18.29 0 0 1-1.12-6.51c0-2.36.38-4.53 1.12-6.5.75-1.97 1.8-3.67 3.17-5.1a14.32 14.32 0 0 1 4.9-3.34c1.92-.8 4.03-1.19 6.34-1.19 2.32 0 4.43.4 6.34 1.19 1.92.8 3.56 1.9 4.93 3.34a14.87 14.87 0 0 1 3.17 5.1 18.1 18.1 0 0 1 1.12 6.5zm-4.38 0c0-1.94-.26-3.68-.8-5.22a10.91 10.91 0 0 0-2.24-3.89 9.68 9.68 0 0 0-3.52-2.46 11.95 11.95 0 0 0-4.62-.86c-1.68 0-3.21.28-4.6.86a9.88 9.88 0 0 0-3.54 2.46 10.91 10.91 0 0 0-2.24 3.9c-.53 1.53-.8 3.27-.8 5.2 0 1.94.27 3.68.8 5.22a11.17 11.17 0 0 0 2.24 3.9 10.01 10.01 0 0 0 3.55 2.44c1.38.56 2.9.83 4.6.83s3.24-.27 4.61-.83a9.8 9.8 0 0 0 3.52-2.44 11.17 11.17 0 0 0 2.25-3.9c.53-1.54.8-3.28.8-5.21zm26.22-6.54V48H60.5c-.56 0-.9-.27-1.05-.81l-.31-2.4a12.45 12.45 0 0 1-3.26 2.6c-1.2.64-2.58.96-4.13.96-1.22 0-2.3-.2-3.24-.6a6.52 6.52 0 0 1-2.33-1.7 7.37 7.37 0 0 1-1.43-2.67c-.3-1.04-.46-2.2-.46-3.45V25.7h3.91v14.22c0 1.68.38 2.99 1.15 3.91.77.93 1.96 1.39 3.54 1.39 1.16 0 2.24-.27 3.23-.82a10.42 10.42 0 0 0 2.8-2.28V25.7h3.91zm8.61 4.47a9.94 9.94 0 0 1 2.6-3.56 5.64 5.64 0 0 1 3.76-1.3c.47 0 .92.05 1.34.15.44.1.83.27 1.17.49l-.3 2.92c-.09.37-.3.55-.66.55-.2 0-.5-.04-.9-.13a6.21 6.21 0 0 0-3.24.18 4.23 4.23 0 0 0-1.47.92c-.42.4-.81.9-1.17 1.5-.33.58-.64 1.26-.92 2.02V48H67.7V25.71h2.25c.42 0 .72.08.88.25.16.16.27.44.33.83l.26 3.39zm61.16-13.7L122.75 48h-3.82l-7.99-24.05a21.95 21.95 0 0 1-.42-1.58 38.36 38.36 0 0 1-.44 1.58L102.05 48h-3.83L88.4 16.47h3.54c.38 0 .7.1.95.29.26.2.43.43.5.73l6.52 21.9.28 1.28.29 1.46.3-1.46.38-1.27 7.41-21.91c.1-.25.26-.48.51-.69.27-.22.58-.33.95-.33h1.23c.38 0 .69.1.92.29a1.77 1.77 0 0 1 .53.73l7.4 21.9a28.4 28.4 0 0 1 .68 2.62 29.52 29.52 0 0 1 .52-2.61l6.54-21.91a1.31 1.31 0 0 1 .48-.7c.27-.21.58-.32.95-.32h3.32zm9.35 8.88c1.63 0 3.1.27 4.4.82a9.43 9.43 0 0 1 5.46 5.94c.5 1.4.74 2.98.74 4.73 0 1.76-.25 3.34-.74 4.75a9.43 9.43 0 0 1-5.46 5.92c-1.3.52-2.77.79-4.4.79-1.64 0-3.12-.27-4.44-.8a9.42 9.42 0 0 1-3.35-2.3c-.92-1-1.63-2.2-2.13-3.61-.49-1.41-.73-3-.73-4.75s.24-3.33.73-4.73c.5-1.43 1.2-2.64 2.13-3.63.93-1 2.04-1.77 3.35-2.31 1.32-.55 2.8-.82 4.44-.82zm0 19.89c2.2 0 3.84-.73 4.93-2.2 1.08-1.48 1.63-3.54 1.63-6.18 0-2.66-.55-4.72-1.63-6.2-1.09-1.49-2.73-2.23-4.93-2.23-1.12 0-2.09.2-2.93.57a5.71 5.71 0 0 0-2.06 1.65c-.55.72-.96 1.61-1.24 2.67-.26 1.04-.4 2.22-.4 3.54 0 2.64.55 4.7 1.64 6.18 1.1 1.47 2.76 2.2 4.99 2.2zm17.97-15.07a9.94 9.94 0 0 1 2.6-3.56 5.64 5.64 0 0 1 3.76-1.3c.47 0 .91.05 1.34.15.44.1.83.27 1.16.49l-.28 2.92c-.09.37-.31.55-.66.55-.2 0-.5-.04-.9-.13a6.2 6.2 0 0 0-3.24.18 4.23 4.23 0 0 0-1.47.92c-.43.4-.82.9-1.17 1.5a13.1 13.1 0 0 0-.92 2.02V48h-3.94V25.71h2.24c.43 0 .72.08.88.25.17.16.28.44.33.83l.27 3.39zm15.04-14.59V48h-3.92V15.6h3.92zm19.55 15.43a6.22 6.22 0 0 0-2.38-2.05 6.7 6.7 0 0 0-2.86-.6c-2.07 0-3.66.75-4.77 2.23-1.12 1.48-1.68 3.6-1.68 6.33 0 1.46.13 2.7.38 3.74a7.29 7.29 0 0 0 1.1 2.56 4.35 4.35 0 0 0 1.78 1.45c.7.3 1.5.46 2.4.46 1.29 0 2.41-.3 3.36-.88a9.6 9.6 0 0 0 2.67-2.49V31.02zm3.91-15.43V48h-2.33c-.56 0-.9-.27-1.06-.81l-.35-2.71a12.13 12.13 0 0 1-3.25 2.77 8.28 8.28 0 0 1-4.23 1.06 7.31 7.31 0 0 1-6.14-2.9c-.73-.96-1.3-2.15-1.69-3.57a18.35 18.35 0 0 1 .07-9.48 11.29 11.29 0 0 1 1.89-3.7 8.7 8.7 0 0 1 7.06-3.34 7.96 7.96 0 0 1 6.12 2.62V15.59h3.91zM46.61 70.71V93H42.7V70.71h3.91zm.84-7c0 .39-.08.75-.24 1.09-.15.32-.35.61-.62.88-.25.25-.55.44-.9.59a2.67 2.67 0 0 1-2.16 0 2.9 2.9 0 0 1-1.45-1.47 2.67 2.67 0 0 1 0-2.16c.15-.35.35-.65.6-.9.25-.27.53-.47.85-.62a2.67 2.67 0 0 1 2.16 0c.35.15.65.35.9.62.27.25.47.55.62.9.16.34.24.7.24 1.08zm7.97 10.24c.49-.54 1-1.04 1.54-1.48a9.85 9.85 0 0 1 3.66-1.84 8.96 8.96 0 0 1 5.43.35c.94.4 1.72.97 2.33 1.71.63.74 1.11 1.62 1.43 2.67.32 1.04.49 2.19.49 3.45V93h-3.94V78.81c0-1.69-.4-3-1.17-3.92-.76-.93-1.93-1.4-3.5-1.4-1.15 0-2.24.27-3.25.83-1 .56-1.92 1.31-2.77 2.27V93h-3.94V70.71h2.35c.56 0 .9.28 1.04.82l.3 2.42zm57.7 3.3c0 2.36-.37 4.5-1.11 6.44a14.3 14.3 0 0 1-3.17 4.98c-1.37 1.37-3 2.45-4.93 3.2-1.9.76-4.02 1.13-6.33 1.13H85.8V61.47h11.77c2.31 0 4.42.39 6.33 1.15a13.8 13.8 0 0 1 8.1 8.18 17.75 17.75 0 0 1 1.12 6.45zm-4.37 0c0-1.94-.26-3.67-.8-5.2a10.94 10.94 0 0 0-2.23-3.87 9.57 9.57 0 0 0-3.53-2.42 12.23 12.23 0 0 0-4.61-.83h-7.5v24.62h7.5c1.7 0 3.24-.28 4.61-.84a9.7 9.7 0 0 0 3.53-2.4 10.94 10.94 0 0 0 2.24-3.87c.53-1.53.8-3.26.8-5.2zm19.8 5.72c-1.8.06-3.34.2-4.62.44-1.26.22-2.3.51-3.1.88-.8.36-1.37.8-1.74 1.3-.35.5-.53 1.05-.53 1.67 0 .58.1 1.1.3 1.52a3 3 0 0 0 .76 1.05c.34.27.73.46 1.17.6a6.13 6.13 0 0 0 1.45.17 7.28 7.28 0 0 0 3.5-.81 11.95 11.95 0 0 0 2.82-2.2v-4.62zm-12.65-9.11a12.73 12.73 0 0 1 3.98-2.66c1.43-.59 3-.88 4.73-.88 1.25 0 2.36.2 3.33.61a6.81 6.81 0 0 1 3.94 4.38c.33 1.04.5 2.19.5 3.43V93h-1.74a1.8 1.8 0 0 1-.88-.18c-.2-.13-.36-.38-.48-.74l-.44-2.12-1.72 1.46a9.48 9.48 0 0 1-3.74 1.7c-.69.15-1.46.23-2.3.23-.87 0-1.69-.12-2.45-.35a5.34 5.34 0 0 1-3.34-2.93 6.64 6.64 0 0 1-.49-2.64c0-.88.25-1.72.73-2.53a6.33 6.33 0 0 1 2.35-2.17c1.09-.63 2.5-1.15 4.25-1.54 1.75-.41 3.89-.65 6.42-.7v-1.75c0-1.73-.37-3.03-1.12-3.91-.75-.9-1.84-1.34-3.28-1.34-.97 0-1.78.12-2.44.37-.64.23-1.2.5-1.7.81l-1.23.82c-.33.23-.67.35-1 .35-.27 0-.5-.07-.69-.2a2.1 2.1 0 0 1-.48-.53l-.7-1.25zm27.67 19.5c-1.76 0-3.12-.5-4.07-1.48-.94-.98-1.41-2.4-1.41-4.25V74h-2.68a.9.9 0 0 1-.6-.2c-.16-.14-.24-.36-.24-.66v-1.56l3.65-.46.9-6.89c.05-.22.14-.4.29-.52a.88.88 0 0 1 .62-.22H142v7.67h6.44V74H142v13.38c0 .94.22 1.63.68 2.09.45.45 1.04.68 1.76.68a3.21 3.21 0 0 0 1.85-.53l.55-.35c.16-.12.3-.18.41-.18.2 0 .4.13.55.38l1.15 1.87a7.45 7.45 0 0 1-2.44 1.5 8.53 8.53 0 0 1-2.95.52zm19.68-10.4c-1.8.07-3.34.21-4.62.45-1.26.22-2.3.51-3.1.88-.8.36-1.37.8-1.74 1.3-.35.5-.53 1.05-.53 1.67 0 .58.1 1.1.3 1.52a2.9 2.9 0 0 0 .76 1.05c.34.27.73.46 1.17.6a6.13 6.13 0 0 0 1.45.17 7.3 7.3 0 0 0 3.5-.81 12.04 12.04 0 0 0 2.82-2.2v-4.62zm-12.65-9.1a12.72 12.72 0 0 1 3.99-2.66c1.42-.59 3-.88 4.72-.88 1.25 0 2.36.2 3.33.61a6.81 6.81 0 0 1 3.94 4.38c.33 1.04.5 2.19.5 3.43V93h-1.74a1.8 1.8 0 0 1-.88-.18c-.2-.13-.36-.38-.48-.74l-.44-2.12-1.72 1.46a9.48 9.48 0 0 1-3.74 1.7c-.69.15-1.46.23-2.3.23-.87 0-1.69-.12-2.45-.35a5.33 5.33 0 0 1-3.34-2.93 6.62 6.62 0 0 1-.49-2.64c0-.88.25-1.72.73-2.53a6.33 6.33 0 0 1 2.35-2.17c1.09-.63 2.5-1.15 4.25-1.54 1.74-.41 3.89-.65 6.42-.7v-1.75c0-1.73-.37-3.03-1.12-3.91-.75-.9-1.84-1.34-3.28-1.34-.97 0-1.78.12-2.44.37-.64.23-1.2.5-1.7.81l-1.22.82c-.34.23-.68.35-1.02.35-.26 0-.49-.07-.68-.2a1.88 1.88 0 0 1-.48-.53l-.7-1.25zM40.98 32.25c0 2.36-.38 4.53-1.12 6.51a14.26 14.26 0 0 1-8.1 8.4c-1.9.78-4.02 1.17-6.34 1.17-2.31 0-4.42-.39-6.33-1.17a14.31 14.31 0 0 1-8.08-8.4 18.29 18.29 0 0 1-1.12-6.51c0-2.36.38-4.53 1.12-6.5.75-1.97 1.8-3.67 3.17-5.1a14.32 14.32 0 0 1 4.9-3.34c1.92-.8 4.03-1.19 6.34-1.19 2.32 0 4.43.4 6.34 1.19 1.92.8 3.56 1.9 4.93 3.34a14.87 14.87 0 0 1 3.17 5.1 18.1 18.1 0 0 1 1.12 6.5zm-4.38 0c0-1.94-.26-3.68-.8-5.22a10.91 10.91 0 0 0-2.24-3.89 9.68 9.68 0 0 0-3.52-2.46 11.95 11.95 0 0 0-4.62-.86c-1.68 0-3.21.28-4.6.86a9.88 9.88 0 0 0-3.54 2.46 10.91 10.91 0 0 0-2.24 3.9c-.53 1.53-.8 3.27-.8 5.2 0 1.94.27 3.68.8 5.22a11.17 11.17 0 0 0 2.24 3.9 10.01 10.01 0 0 0 3.55 2.44c1.38.56 2.9.83 4.6.83s3.24-.27 4.61-.83a9.8 9.8 0 0 0 3.52-2.44 11.17 11.17 0 0 0 2.25-3.9c.53-1.54.8-3.28.8-5.21zm26.22-6.54V48H60.5c-.56 0-.9-.27-1.05-.81l-.31-2.4a12.45 12.45 0 0 1-3.26 2.6c-1.2.64-2.58.96-4.13.96-1.22 0-2.3-.2-3.24-.6a6.52 6.52 0 0 1-2.33-1.7 7.37 7.37 0 0 1-1.43-2.67c-.3-1.04-.46-2.2-.46-3.45V25.7h3.91v14.22c0 1.68.38 2.99 1.15 3.91.77.93 1.96 1.39 3.54 1.39 1.16 0 2.24-.27 3.23-.82a10.42 10.42 0 0 0 2.8-2.28V25.7h3.91zm8.61 4.47a9.94 9.94 0 0 1 2.6-3.56 5.64 5.64 0 0 1 3.76-1.3c.47 0 .92.05 1.34.15.44.1.83.27 1.17.49l-.3 2.92c-.09.37-.3.55-.66.55-.2 0-.5-.04-.9-.13a6.21 6.21 0 0 0-3.24.18 4.23 4.23 0 0 0-1.47.92c-.42.4-.81.9-1.17 1.5-.33.58-.64 1.26-.92 2.02V48H67.7V25.71h2.25c.42 0 .72.08.88.25.16.16.27.44.33.83l.26 3.39zm61.16-13.7L122.75 48h-3.82l-7.99-24.05a21.95 21.95 0 0 1-.42-1.58 38.36 38.36 0 0 1-.44 1.58L102.05 48h-3.83L88.4 16.47h3.54c.38 0 .7.1.95.29.26.2.43.43.5.73l6.52 21.9.28 1.28.29 1.46.3-1.46.38-1.27 7.41-21.91c.1-.25.26-.48.51-.69.27-.22.58-.33.95-.33h1.23c.38 0 .69.1.92.29a1.77 1.77 0 0 1 .53.73l7.4 21.9a28.4 28.4 0 0 1 .68 2.62 29.52 29.52 0 0 1 .52-2.61l6.54-21.91a1.31 1.31 0 0 1 .48-.7c.27-.21.58-.32.95-.32h3.32zm9.35 8.88c1.63 0 3.1.27 4.4.82a9.43 9.43 0 0 1 5.46 5.94c.5 1.4.74 2.98.74 4.73 0 1.76-.25 3.34-.74 4.75a9.43 9.43 0 0 1-5.46 5.92c-1.3.52-2.77.79-4.4.79-1.64 0-3.12-.27-4.44-.8a9.42 9.42 0 0 1-3.35-2.3c-.92-1-1.63-2.2-2.13-3.61-.49-1.41-.73-3-.73-4.75s.24-3.33.73-4.73c.5-1.43 1.2-2.64 2.13-3.63.93-1 2.04-1.77 3.35-2.31 1.32-.55 2.8-.82 4.44-.82zm0 19.89c2.2 0 3.84-.73 4.93-2.2 1.08-1.48 1.63-3.54 1.63-6.18 0-2.66-.55-4.72-1.63-6.2-1.09-1.49-2.73-2.23-4.93-2.23-1.12 0-2.09.2-2.93.57a5.71 5.71 0 0 0-2.06 1.65c-.55.72-.96 1.61-1.24 2.67-.26 1.04-.4 2.22-.4 3.54 0 2.64.55 4.7 1.64 6.18 1.1 1.47 2.76 2.2 4.99 2.2zm17.97-15.07a9.94 9.94 0 0 1 2.6-3.56 5.64 5.64 0 0 1 3.76-1.3c.47 0 .91.05 1.34.15.44.1.83.27 1.16.49l-.28 2.92c-.09.37-.31.55-.66.55-.2 0-.5-.04-.9-.13a6.2 6.2 0 0 0-3.24.18 4.23 4.23 0 0 0-1.47.92c-.43.4-.82.9-1.17 1.5a13.1 13.1 0 0 0-.92 2.02V48h-3.94V25.71h2.24c.43 0 .72.08.88.25.17.16.28.44.33.83l.27 3.39zm15.04-14.59V48h-3.92V15.6h3.92zm19.55 15.43a6.22 6.22 0 0 0-2.38-2.05 6.7 6.7 0 0 0-2.86-.6c-2.07 0-3.66.75-4.77 2.23-1.12 1.48-1.68 3.6-1.68 6.33 0 1.46.13 2.7.38 3.74a7.29 7.29 0 0 0 1.1 2.56 4.35 4.35 0 0 0 1.78 1.45c.7.3 1.5.46 2.4.46 1.29 0 2.41-.3 3.36-.88a9.6 9.6 0 0 0 2.67-2.49V31.02zm3.91-15.43V48h-2.33c-.56 0-.9-.27-1.06-.81l-.35-2.71a12.13 12.13 0 0 1-3.25 2.77 8.28 8.28 0 0 1-4.23 1.06 7.31 7.31 0 0 1-6.14-2.9c-.73-.96-1.3-2.15-1.69-3.57a18.35 18.35 0 0 1 .07-9.48 11.29 11.29 0 0 1 1.89-3.7 8.7 8.7 0 0 1 7.06-3.34 7.96 7.96 0 0 1 6.12 2.62V15.59h3.91zM46.61 70.71V93H42.7V70.71h3.91zm.84-7c0 .39-.08.75-.24 1.09-.15.32-.35.61-.62.88-.25.25-.55.44-.9.59a2.67 2.67 0 0 1-2.16 0 2.9 2.9 0 0 1-1.45-1.47 2.67 2.67 0 0 1 0-2.16c.15-.35.35-.65.6-.9.25-.27.53-.47.85-.62a2.67 2.67 0 0 1 2.16 0c.35.15.65.35.9.62.27.25.47.55.62.9.16.34.24.7.24 1.08zm7.97 10.24c.49-.54 1-1.04 1.54-1.48a9.85 9.85 0 0 1 3.66-1.84 8.96 8.96 0 0 1 5.43.35c.94.4 1.72.97 2.33 1.71.63.74 1.11 1.62 1.43 2.67.32 1.04.49 2.19.49 3.45V93h-3.94V78.81c0-1.69-.4-3-1.17-3.92-.76-.93-1.93-1.4-3.5-1.4-1.15 0-2.24.27-3.25.83-1 .56-1.92 1.31-2.77 2.27V93h-3.94V70.71h2.35c.56 0 .9.28 1.04.82l.3 2.42zm57.7 3.3c0 2.36-.37 4.5-1.11 6.44a14.3 14.3 0 0 1-3.17 4.98c-1.37 1.37-3 2.45-4.93 3.2-1.9.76-4.02 1.13-6.33 1.13H85.8V61.47h11.77c2.31 0 4.42.39 6.33 1.15a13.8 13.8 0 0 1 8.1 8.18 17.75 17.75 0 0 1 1.12 6.45zm-4.37 0c0-1.94-.26-3.67-.8-5.2a10.94 10.94 0 0 0-2.23-3.87 9.57 9.57 0 0 0-3.53-2.42 12.23 12.23 0 0 0-4.61-.83h-7.5v24.62h7.5c1.7 0 3.24-.28 4.61-.84a9.7 9.7 0 0 0 3.53-2.4 10.94 10.94 0 0 0 2.24-3.87c.53-1.53.8-3.26.8-5.2zm19.8 5.72c-1.8.06-3.34.2-4.62.44-1.26.22-2.3.51-3.1.88-.8.36-1.37.8-1.74 1.3-.35.5-.53 1.05-.53 1.67 0 .58.1 1.1.3 1.52a3 3 0 0 0 .76 1.05c.34.27.73.46 1.17.6a6.13 6.13 0 0 0 1.45.17 7.28 7.28 0 0 0 3.5-.81 11.95 11.95 0 0 0 2.82-2.2v-4.62zm-12.65-9.11a12.73 12.73 0 0 1 3.98-2.66c1.43-.59 3-.88 4.73-.88 1.25 0 2.36.2 3.33.61a6.81 6.81 0 0 1 3.94 4.38c.33 1.04.5 2.19.5 3.43V93h-1.74a1.8 1.8 0 0 1-.88-.18c-.2-.13-.36-.38-.48-.74l-.44-2.12-1.72 1.46a9.48 9.48 0 0 1-3.74 1.7c-.69.15-1.46.23-2.3.23-.87 0-1.69-.12-2.45-.35a5.34 5.34 0 0 1-3.34-2.93 6.64 6.64 0 0 1-.49-2.64c0-.88.25-1.72.73-2.53a6.33 6.33 0 0 1 2.35-2.17c1.09-.63 2.5-1.15 4.25-1.54 1.75-.41 3.89-.65 6.42-.7v-1.75c0-1.73-.37-3.03-1.12-3.91-.75-.9-1.84-1.34-3.28-1.34-.97 0-1.78.12-2.44.37-.64.23-1.2.5-1.7.81l-1.23.82c-.33.23-.67.35-1 .35-.27 0-.5-.07-.69-.2a2.1 2.1 0 0 1-.48-.53l-.7-1.25zm27.67 19.5c-1.76 0-3.12-.5-4.07-1.48-.94-.98-1.41-2.4-1.41-4.25V74h-2.68a.9.9 0 0 1-.6-.2c-.16-.14-.24-.36-.24-.66v-1.56l3.65-.46.9-6.89c.05-.22.14-.4.29-.52a.88.88 0 0 1 .62-.22H142v7.67h6.44V74H142v13.38c0 .94.22 1.63.68 2.09.45.45 1.04.68 1.76.68a3.21 3.21 0 0 0 1.85-.53l.55-.35c.16-.12.3-.18.41-.18.2 0 .4.13.55.38l1.15 1.87a7.45 7.45 0 0 1-2.44 1.5 8.53 8.53 0 0 1-2.95.52zm19.68-10.4c-1.8.07-3.34.21-4.62.45-1.26.22-2.3.51-3.1.88-.8.36-1.37.8-1.74 1.3-.35.5-.53 1.05-.53 1.67 0 .58.1 1.1.3 1.52a2.9 2.9 0 0 0 .76 1.05c.34.27.73.46 1.17.6a6.13 6.13 0 0 0 1.45.17 7.3 7.3 0 0 0 3.5-.81 12.04 12.04 0 0 0 2.82-2.2v-4.62zm-12.65-9.1a12.72 12.72 0 0 1 3.99-2.66c1.42-.59 3-.88 4.72-.88 1.25 0 2.36.2 3.33.61a6.81 6.81 0 0 1 3.94 4.38c.33 1.04.5 2.19.5 3.43V93h-1.74a1.8 1.8 0 0 1-.88-.18c-.2-.13-.36-.38-.48-.74l-.44-2.12-1.72 1.46a9.48 9.48 0 0 1-3.74 1.7c-.69.15-1.46.23-2.3.23-.87 0-1.69-.12-2.45-.35a5.33 5.33 0 0 1-3.34-2.93 6.62 6.62 0 0 1-.49-2.64c0-.88.25-1.72.73-2.53a6.33 6.33 0 0 1 2.35-2.17c1.09-.63 2.5-1.15 4.25-1.54 1.74-.41 3.89-.65 6.42-.7v-1.75c0-1.73-.37-3.03-1.12-3.91-.75-.9-1.84-1.34-3.28-1.34-.97 0-1.78.12-2.44.37-.64.23-1.2.5-1.7.81l-1.22.82c-.34.23-.68.35-1.02.35-.26 0-.49-.07-.68-.2a1.88 1.88 0 0 1-.48-.53l-.7-1.25zM40.98 32.25c0 2.36-.38 4.53-1.12 6.51a14.26 14.26 0 0 1-8.1 8.4c-1.9.78-4.02 1.17-6.34 1.17-2.31 0-4.42-.39-6.33-1.17a14.31 14.31 0 0 1-8.08-8.4 18.29 18.29 0 0 1-1.12-6.51c0-2.36.38-4.53 1.12-6.5.75-1.97 1.8-3.67 3.17-5.1a14.32 14.32 0 0 1 4.9-3.34c1.92-.8 4.03-1.19 6.34-1.19 2.32 0 4.43.4 6.34 1.19 1.92.8 3.56 1.9 4.93 3.34a14.87 14.87 0 0 1 3.17 5.1 18.1 18.1 0 0 1 1.12 6.5zm-4.38 0c0-1.94-.26-3.68-.8-5.22a10.91 10.91 0 0 0-2.24-3.89 9.68 9.68 0 0 0-3.52-2.46 11.95 11.95 0 0 0-4.62-.86c-1.68 0-3.21.28-4.6.86a9.88 9.88 0 0 0-3.54 2.46 10.91 10.91 0 0 0-2.24 3.9c-.53 1.53-.8 3.27-.8 5.2 0 1.94.27 3.68.8 5.22a11.17 11.17 0 0 0 2.24 3.9 10.01 10.01 0 0 0 3.55 2.44c1.38.56 2.9.83 4.6.83s3.24-.27 4.61-.83a9.8 9.8 0 0 0 3.52-2.44 11.17 11.17 0 0 0 2.25-3.9c.53-1.54.8-3.28.8-5.21zm26.22-6.54V48H60.5c-.56 0-.9-.27-1.05-.81l-.31-2.4a12.45 12.45 0 0 1-3.26 2.6c-1.2.64-2.58.96-4.13.96-1.22 0-2.3-.2-3.24-.6a6.52 6.52 0 0 1-2.33-1.7 7.37 7.37 0 0 1-1.43-2.67c-.3-1.04-.46-2.2-.46-3.45V25.7h3.91v14.22c0 1.68.38 2.99 1.15 3.91.77.93 1.96 1.39 3.54 1.39 1.16 0 2.24-.27 3.23-.82a10.42 10.42 0 0 0 2.8-2.28V25.7h3.91zm8.61 4.47a9.94 9.94 0 0 1 2.6-3.56 5.64 5.64 0 0 1 3.76-1.3c.47 0 .92.05 1.34.15.44.1.83.27 1.17.49l-.3 2.92c-.09.37-.3.55-.66.55-.2 0-.5-.04-.9-.13a6.21 6.21 0 0 0-3.24.18 4.23 4.23 0 0 0-1.47.92c-.42.4-.81.9-1.17 1.5-.33.58-.64 1.26-.92 2.02V48H67.7V25.71h2.25c.42 0 .72.08.88.25.16.16.27.44.33.83l.26 3.39zm61.16-13.7L122.75 48h-3.82l-7.99-24.05a21.95 21.95 0 0 1-.42-1.58 38.36 38.36 0 0 1-.44 1.58L102.05 48h-3.83L88.4 16.47h3.54c.38 0 .7.1.95.29.26.2.43.43.5.73l6.52 21.9.28 1.28.29 1.46.3-1.46.38-1.27 7.41-21.91c.1-.25.26-.48.51-.69.27-.22.58-.33.95-.33h1.23c.38 0 .69.1.92.29a1.77 1.77 0 0 1 .53.73l7.4 21.9a28.4 28.4 0 0 1 .68 2.62 29.52 29.52 0 0 1 .52-2.61l6.54-21.91a1.31 1.31 0 0 1 .48-.7c.27-.21.58-.32.95-.32h3.32zm9.35 8.88c1.63 0 3.1.27 4.4.82a9.43 9.43 0 0 1 5.46 5.94c.5 1.4.74 2.98.74 4.73 0 1.76-.25 3.34-.74 4.75a9.43 9.43 0 0 1-5.46 5.92c-1.3.52-2.77.79-4.4.79-1.64 0-3.12-.27-4.44-.8a9.42 9.42 0 0 1-3.35-2.3c-.92-1-1.63-2.2-2.13-3.61-.49-1.41-.73-3-.73-4.75s.24-3.33.73-4.73c.5-1.43 1.2-2.64 2.13-3.63.93-1 2.04-1.77 3.35-2.31 1.32-.55 2.8-.82 4.44-.82zm0 19.89c2.2 0 3.84-.73 4.93-2.2 1.08-1.48 1.63-3.54 1.63-6.18 0-2.66-.55-4.72-1.63-6.2-1.09-1.49-2.73-2.23-4.93-2.23-1.12 0-2.09.2-2.93.57a5.71 5.71 0 0 0-2.06 1.65c-.55.72-.96 1.61-1.24 2.67-.26 1.04-.4 2.22-.4 3.54 0 2.64.55 4.7 1.64 6.18 1.1 1.47 2.76 2.2 4.99 2.2zm17.97-15.07a9.94 9.94 0 0 1 2.6-3.56 5.64 5.64 0 0 1 3.76-1.3c.47 0 .91.05 1.34.15.44.1.83.27 1.16.49l-.28 2.92c-.09.37-.31.55-.66.55-.2 0-.5-.04-.9-.13a6.2 6.2 0 0 0-3.24.18 4.23 4.23 0 0 0-1.47.92c-.43.4-.82.9-1.17 1.5a13.1 13.1 0 0 0-.92 2.02V48h-3.94V25.71h2.24c.43 0 .72.08.88.25.17.16.28.44.33.83l.27 3.39zm15.04-14.59V48h-3.92V15.6h3.92zm19.55 15.43a6.22 6.22 0 0 0-2.38-2.05 6.7 6.7 0 0 0-2.86-.6c-2.07 0-3.66.75-4.77 2.23-1.12 1.48-1.68 3.6-1.68 6.33 0 1.46.13 2.7.38 3.74a7.29 7.29 0 0 0 1.1 2.56 4.35 4.35 0 0 0 1.78 1.45c.7.3 1.5.46 2.4.46 1.29 0 2.41-.3 3.36-.88a9.6 9.6 0 0 0 2.67-2.49V31.02zm3.91-15.43V48h-2.33c-.56 0-.9-.27-1.06-.81l-.35-2.71a12.13 12.13 0 0 1-3.25 2.77 8.28 8.28 0 0 1-4.23 1.06 7.31 7.31 0 0 1-6.14-2.9c-.73-.96-1.3-2.15-1.69-3.57a18.35 18.35 0 0 1 .07-9.48 11.29 11.29 0 0 1 1.89-3.7 8.7 8.7 0 0 1 7.06-3.34 7.96 7.96 0 0 1 6.12 2.62V15.59h3.91zM46.61 70.71V93H42.7V70.71h3.91zm.84-7c0 .39-.08.75-.24 1.09-.15.32-.35.61-.62.88-.25.25-.55.44-.9.59a2.67 2.67 0 0 1-2.16 0 2.9 2.9 0 0 1-1.45-1.47 2.67 2.67 0 0 1 0-2.16c.15-.35.35-.65.6-.9.25-.27.53-.47.85-.62a2.67 2.67 0 0 1 2.16 0c.35.15.65.35.9.62.27.25.47.55.62.9.16.34.24.7.24 1.08zm7.97 10.24c.49-.54 1-1.04 1.54-1.48a9.85 9.85 0 0 1 3.66-1.84 8.96 8.96 0 0 1 5.43.35c.94.4 1.72.97 2.33 1.71.63.74 1.11 1.62 1.43 2.67.32 1.04.49 2.19.49 3.45V93h-3.94V78.81c0-1.69-.4-3-1.17-3.92-.76-.93-1.93-1.4-3.5-1.4-1.15 0-2.24.27-3.25.83-1 .56-1.92 1.31-2.77 2.27V93h-3.94V70.71h2.35c.56 0 .9.28 1.04.82l.3 2.42zm57.7 3.3c0 2.36-.37 4.5-1.11 6.44a14.3 14.3 0 0 1-3.17 4.98c-1.37 1.37-3 2.45-4.93 3.2-1.9.76-4.02 1.13-6.33 1.13H85.8V61.47h11.77c2.31 0 4.42.39 6.33 1.15a13.8 13.8 0 0 1 8.1 8.18 17.75 17.75 0 0 1 1.12 6.45zm-4.37 0c0-1.94-.26-3.67-.8-5.2a10.94 10.94 0 0 0-2.23-3.87 9.57 9.57 0 0 0-3.53-2.42 12.23 12.23 0 0 0-4.61-.83h-7.5v24.62h7.5c1.7 0 3.24-.28 4.61-.84a9.7 9.7 0 0 0 3.53-2.4 10.94 10.94 0 0 0 2.24-3.87c.53-1.53.8-3.26.8-5.2zm19.8 5.72c-1.8.06-3.34.2-4.62.44-1.26.22-2.3.51-3.1.88-.8.36-1.37.8-1.74 1.3-.35.5-.53 1.05-.53 1.67 0 .58.1 1.1.3 1.52a3 3 0 0 0 .76 1.05c.34.27.73.46 1.17.6a6.13 6.13 0 0 0 1.45.17 7.28 7.28 0 0 0 3.5-.81 11.95 11.95 0 0 0 2.82-2.2v-4.62zm-12.65-9.11a12.73 12.73 0 0 1 3.98-2.66c1.43-.59 3-.88 4.73-.88 1.25 0 2.36.2 3.33.61a6.81 6.81 0 0 1 3.94 4.38c.33 1.04.5 2.19.5 3.43V93h-1.74a1.8 1.8 0 0 1-.88-.18c-.2-.13-.36-.38-.48-.74l-.44-2.12-1.72 1.46a9.48 9.48 0 0 1-3.74 1.7c-.69.15-1.46.23-2.3.23-.87 0-1.69-.12-2.45-.35a5.34 5.34 0 0 1-3.34-2.93 6.64 6.64 0 0 1-.49-2.64c0-.88.25-1.72.73-2.53a6.33 6.33 0 0 1 2.35-2.17c1.09-.63 2.5-1.15 4.25-1.54 1.75-.41 3.89-.65 6.42-.7v-1.75c0-1.73-.37-3.03-1.12-3.91-.75-.9-1.84-1.34-3.28-1.34-.97 0-1.78.12-2.44.37-.64.23-1.2.5-1.7.81l-1.23.82c-.33.23-.67.35-1 .35-.27 0-.5-.07-.69-.2a2.1 2.1 0 0 1-.48-.53l-.7-1.25zm27.67 19.5c-1.76 0-3.12-.5-4.07-1.48-.94-.98-1.41-2.4-1.41-4.25V74h-2.68a.9.9 0 0 1-.6-.2c-.16-.14-.24-.36-.24-.66v-1.56l3.65-.46.9-6.89c.05-.22.14-.4.29-.52a.88.88 0 0 1 .62-.22H142v7.67h6.44V74H142v13.38c0 .94.22 1.63.68 2.09.45.45 1.04.68 1.76.68a3.21 3.21 0 0 0 1.85-.53l.55-.35c.16-.12.3-.18.41-.18.2 0 .4.13.55.38l1.15 1.87a7.45 7.45 0 0 1-2.44 1.5 8.53 8.53 0 0 1-2.95.52zm19.68-10.4c-1.8.07-3.34.21-4.62.45-1.26.22-2.3.51-3.1.88-.8.36-1.37.8-1.74 1.3-.35.5-.53 1.05-.53 1.67 0 .58.1 1.1.3 1.52a2.9 2.9 0 0 0 .76 1.05c.34.27.73.46 1.17.6a6.13 6.13 0 0 0 1.45.17 7.3 7.3 0 0 0 3.5-.81 12.04 12.04 0 0 0 2.82-2.2v-4.62zm-12.65-9.1a12.72 12.72 0 0 1 3.99-2.66c1.42-.59 3-.88 4.72-.88 1.25 0 2.36.2 3.33.61a6.81 6.81 0 0 1 3.94 4.38c.33 1.04.5 2.19.5 3.43V93h-1.74a1.8 1.8 0 0 1-.88-.18c-.2-.13-.36-.38-.48-.74l-.44-2.12-1.72 1.46a9.48 9.48 0 0 1-3.74 1.7c-.69.15-1.46.23-2.3.23-.87 0-1.69-.12-2.45-.35a5.33 5.33 0 0 1-3.34-2.93 6.62 6.62 0 0 1-.49-2.64c0-.88.25-1.72.73-2.53a6.33 6.33 0 0 1 2.35-2.17c1.09-.63 2.5-1.15 4.25-1.54 1.74-.41 3.89-.65 6.42-.7v-1.75c0-1.73-.37-3.03-1.12-3.91-.75-.9-1.84-1.34-3.28-1.34-.97 0-1.78.12-2.44.37-.64.23-1.2.5-1.7.81l-1.22.82c-.34.23-.68.35-1.02.35-.26 0-.49-.07-.68-.2a1.88 1.88 0 0 1-.48-.53l-.7-1.25z"
    fill="#fff"
  />
  <path fill="#D42B21" d="M0 106.79h210V120H0z" />
</g>
<defs>
  <clipPath id="clip0"><path fill="#fff" d="M0 0h210v120H0z" /></clipPath>
</defs>
</svg></g><a href="https://ourworldindata.org/grapher/share-elec-by-source?country=~SWE" style="font-family:&quot;Playfair Display&quot;, Georgia, &quot;Times New Roman&quot;, serif" target="_blank" rel="noopener"><text font-size="25.20" x="15.0" y="35.2" fill="#555"><tspan x="15" y="35.160000000000004">Share of electricity production by source, Sweden</tspan></text></a></g><g class="LineChart"><defs><clipPath id="boundsClip-18"><rect x="42.562" y="58" width="840" height="499.4"></rect></clipPath></defs><rect x="15" y="68" width="820" height="479.4" fill="transparent"></rect><g class="DualAxisView"><g class="HorizontalAxis"><line x1="52.6" y1="526.2" x2="52.6" y2="531.2" stroke="#999"></line><line x1="693.1" y1="526.2" x2="693.1" y2="531.2" stroke="#999"></line><line x1="141.5" y1="526.2" x2="141.5" y2="531.2" stroke="#999"></line><line x1="230.5" y1="526.2" x2="230.5" y2="531.2" stroke="#999"></line><line x1="319.4" y1="526.2" x2="319.4" y2="531.2" stroke="#999"></line><line x1="408.4" y1="526.2" x2="408.4" y2="531.2" stroke="#999"></line><line x1="497.4" y1="526.2" x2="497.4" y2="531.2" stroke="#999"></line><line x1="586.3" y1="526.2" x2="586.3" y2="531.2" stroke="#999"></line><text x="52.562" y="547.4" fill="#666" text-anchor="start" font-size="16.2">1985</text><text x="693.0799999999999" y="547.4" fill="#666" text-anchor="end" font-size="16.2">2021</text><text x="141.5" y="547.4" fill="#666" text-anchor="middle" font-size="16.2">1990</text><text x="230.5" y="547.4" fill="#666" text-anchor="middle" font-size="16.2">1995</text><text x="319.4" y="547.4" fill="#666" text-anchor="middle" font-size="16.2">2000</text><text x="408.4" y="547.4" fill="#666" text-anchor="middle" font-size="16.2">2005</text><text x="497.4" y="547.4" fill="#666" text-anchor="middle" font-size="16.2">2010</text><text x="586.3" y="547.4" fill="#666" text-anchor="middle" font-size="16.2">2015</text></g><g class="VerticalAxis"><text x="47.56" y="526.2" dy=".32em" text-anchor="end" fill="#666" font-size="16.2">0%</text><text x="47.56" y="441.5" dy=".32em" text-anchor="end" fill="#666" font-size="16.2">10%</text><text x="47.56" y="356.8" dy=".32em" text-anchor="end" fill="#666" font-size="16.2">20%</text><text x="47.56" y="272.1" dy=".32em" text-anchor="end" fill="#666" font-size="16.2">30%</text><text x="47.56" y="187.5" dy=".32em" text-anchor="end" fill="#666" font-size="16.2">40%</text><text x="47.56" y="102.8" dy=".32em" text-anchor="end" fill="#666" font-size="16.2">50%</text></g><g class="AxisGridLines horizontalLines"><line x1="52.56" y1="526.2" x2="693.08" y2="526.2" stroke="#999"></line><line x1="52.56" y1="441.5" x2="693.08" y2="441.5" stroke="#ddd" stroke-dasharray="3,2"></line><line x1="52.56" y1="356.8" x2="693.08" y2="356.8" stroke="#ddd" stroke-dasharray="3,2"></line><line x1="52.56" y1="272.1" x2="693.08" y2="272.1" stroke="#ddd" stroke-dasharray="3,2"></line><line x1="52.56" y1="187.5" x2="693.08" y2="187.5" stroke="#ddd" stroke-dasharray="3,2"></line><line x1="52.56" y1="102.8" x2="693.08" y2="102.8" stroke="#ddd" stroke-dasharray="3,2"></line></g></g><g clip-path="url(#boundsClip-18)"><g class="LineLabels" style="cursor:default"><g class="legendMark"><g class="indicator"><path d="M697.0799999999999,162.4 H710.5799999999999 V162.4 H724.0799999999999" stroke="#999" stroke-width="0.5" fill="none"></path></g><rect x="693.0799999999999" y="155.65" width="107.9" height="13.5" fill="#fff" opacity="0"></rect><text font-size="13.50" font-weight="400" x="728.1" y="166.5" fill="#00847e"><tspan x="728.0799999999999" y="166.45000000000002">Hydropower</tspan></text></g><g class="legendMark"><g class="indicator"><path d="M697.0799999999999,261.7 H710.5799999999999 V261.7 H724.0799999999999" stroke="#999" stroke-width="0.5" fill="none"></path></g><rect x="693.0799999999999" y="254.95" width="81.575" height="13.5" fill="#fff" opacity="0"></rect><text font-size="13.50" font-weight="400" x="728.1" y="265.8" fill="#00823f"><tspan x="728.0799999999999" y="265.75">Nuclear</tspan></text></g><g class="legendMark"><g class="indicator"><path d="M697.0799999999999,391 H710.5799999999999 V391 H724.0799999999999" stroke="#999" stroke-width="0.5" fill="none"></path></g><rect x="693.0799999999999" y="384.25" width="65.78" height="13.5" fill="#fff" opacity="0"></rect><text font-size="13.50" font-weight="400" x="728.1" y="395.1" fill="#cf0a66"><tspan x="728.0799999999999" y="395.05">Wind</tspan></text></g><g class="legendMark"><g class="indicator"><path d="M697.0799999999999,460.2 H701.5799999999999 V457.4500000000001 H724.0799999999999" stroke="#999" stroke-width="0.5" fill="none"></path></g><rect x="693.0799999999999" y="450.7000000000001" width="141.92000000000002" height="13.5" fill="#fff" opacity="0"></rect><text font-size="13.50" font-weight="400" x="728.1" y="461.5" fill="#4c6a9c"><tspan x="728.0799999999999" y="461.5000000000001">Other renewables</tspan></text></g><g class="legendMark"><g class="indicator"><path d="M697.0799999999999,514.6 H706.0799999999999 V472.9500000000001 H724.0799999999999" stroke="#999" stroke-width="0.5" fill="none"></path></g><rect x="693.0799999999999" y="466.2000000000001" width="51.47" height="13.5" fill="#fff" opacity="0"></rect><text font-size="13.50" font-weight="400" x="728.1" y="477.0" fill="#883039"><tspan x="728.0799999999999" y="477.0000000000001">Oil</tspan></text></g><g class="legendMark"><g class="indicator"><path d="M697.0799999999999,521 H710.5799999999999 V488.4500000000001 H724.0799999999999" stroke="#999" stroke-width="0.5" fill="none"></path></g><rect x="693.0799999999999" y="481.7000000000001" width="66.59" height="13.5" fill="#fff" opacity="0"></rect><text font-size="13.50" font-weight="400" x="728.1" y="492.5" fill="#6d3e91"><tspan x="728.0799999999999" y="492.5000000000001">Solar</tspan></text></g><g class="legendMark"><g class="indicator"><path d="M697.0799999999999,525.7 H715.0799999999999 V503.9500000000001 H724.0799999999999" stroke="#999" stroke-width="0.5" fill="none"></path></g><rect x="693.0799999999999" y="497.2000000000001" width="59.84" height="13.5" fill="#fff" opacity="0"></rect><text font-size="13.50" font-weight="400" x="728.1" y="508.0" fill="#b13507"><tspan x="728.0799999999999" y="508.0000000000001">Gas</tspan></text></g><g class="legendMark"><g class="indicator"><path d="M697.0799999999999,526.2 H719.5799999999999 V519.45 H724.0799999999999" stroke="#999" stroke-width="0.5" fill="none"></path></g><rect x="693.0799999999999" y="512.7" width="62.81" height="13.5" fill="#fff" opacity="0"></rect><text font-size="13.50" font-weight="400" x="728.1" y="523.5" fill="#3c4e66"><tspan x="728.0799999999999" y="523.5">Coal</tspan></text></g></g><g class="Lines"><rect x="53" y="68" width="641" height="458" fill="rgba(255,255,255,0)" opacity="0"></rect><g><path stroke-linecap="round" stroke-linejoin="round" stroke="#ddd" d="M52.6 515.1L70.4 514.1L88.1 514.9L105.9 514.4L123.7 513.2L141.5 514.9L159.3 515.5L177.1 514.5L194.9 513.5L212.7 513L230.5 512.8L248.3 513.4L266.1 510.5L283.9 511.4L301.7 511.4L319.4 502.3L337.2 506.4L355 502.1L372.8 498L390.6 486L408.4 486.2L426.2 476.8L444 470.2L461.8 467.8L479.6 455.2L497.4 456.7L515.2 461.2L533 464.2L550.7 462.8L568.5 467.2L586.3 469.9L604.1 463.8L621.9 463.9L639.7 464.5L657.5 460.6L675.3 468.4L693.1 460.2" fill="none" stroke-width="1"></path></g><g><path stroke-linecap="round" stroke-linejoin="round" stroke="#ddd" d="M52.6 164.6L70.4 99L88.1 136.9L105.9 124.2L123.7 137.9L141.5 130.7L159.3 83.9L177.1 157.5L194.9 168.2L212.7 92L230.5 126.8L248.3 78.9L266.1 129.3L283.9 133.8L301.7 125.9L319.4 192L337.2 148.3L355 133L372.8 104.5L390.6 93.6L408.4 139.2L426.2 130.3L444 145.1L461.8 165.3L479.6 202.8L497.4 196.3L515.2 185.4L533 200.3L550.7 158.4L568.5 168.4L586.3 231.6L604.1 183.4L621.9 187.4L639.7 170.8L657.5 193.7L675.3 271.8L693.1 261.7" fill="none" stroke-width="1"></path></g><g><path stroke-linecap="round" stroke-linejoin="round" stroke="#ddd" d="M141.5 515.5L159.3 511.4L177.1 506.3L194.9 502.9L212.7 498.5L230.5 499.5L248.3 478.2L266.1 500.2L283.9 502L301.7 503.2L319.4 510.7L337.2 505.8L355 500.2L372.8 490.8L390.6 502.6L408.4 507.4L426.2 504L444 509.5L461.8 506.6L479.6 510.4L497.4 500L515.2 506.6L533 512.5L550.7 513L568.5 514.4L586.3 514.1L604.1 511.4L621.9 511.7L639.7 511L657.5 511.9L675.3 514.1L693.1 514.6" fill="none" stroke-width="1"></path></g><g><path stroke-linecap="round" stroke-linejoin="round" stroke="#ddd" d="M52.6 526.2L70.4 526.2L88.1 526.2L105.9 526.2L123.7 526.2L141.5 526.1L159.3 526.1L177.1 526L194.9 525.9L212.7 525.8L230.5 525.6L248.3 525.4L266.1 525.1L283.9 524.5L301.7 524.2L319.4 523.5L337.2 523.7L355 522.7L372.8 521.9L390.6 521.4L408.4 521.2L426.2 520.4L444 518.1L461.8 514.9L479.6 510.8L497.4 506.3L515.2 491.8L533 489.8L550.7 471.7L568.5 464.3L586.3 440.9L604.1 442.1L621.9 435.4L639.7 440L657.5 426.4L675.3 383.9L693.1 391" fill="none" stroke-width="1"></path></g><g><path stroke-linecap="round" stroke-linejoin="round" stroke="#ddd" d="M52.6 526.2L70.4 526.2L88.1 526.2L105.9 526.2L123.7 526.2L141.5 526.2L159.3 526.2L177.1 526.2L194.9 526.2L212.7 526.2L230.5 526.2L248.3 526.2L266.1 526.2L283.9 526.2L301.7 526.2L319.4 526.2L337.2 526.2L355 526.2L372.8 526.2L390.6 526.2L408.4 526.2L426.2 526.2L444 526.2L461.8 526.2L479.6 526.1L497.4 526.1L515.2 526.1L533 526.1L550.7 526L568.5 525.9L586.3 525.7L604.1 525.4L621.9 525L639.7 524.1L657.5 522.8L675.3 520.8L693.1 521" fill="none" stroke-width="1"></path></g><g><path stroke-linecap="round" stroke-linejoin="round" stroke="#ddd" d="M52.6 87.8L70.4 154L88.1 111.1L105.9 121.5L123.7 101.6L141.5 105.6L159.3 161.8L177.1 94.9L194.9 91L212.7 175.5L230.5 137.3L248.3 214.6L266.1 134.2L283.9 126.2L301.7 134.1L319.4 68L337.2 111.9L355 143.1L372.8 191.3L390.6 190.6L408.4 136.9L426.2 161.4L444 149.7L461.8 136L479.6 118L497.4 147.4L515.2 151.9L533 124.6L550.7 186.6L568.5 174.6L586.3 132.5L604.1 189.3L621.9 190.3L639.7 203.7L657.5 197.5L675.3 151.9L693.1 162.4" fill="none" stroke-width="1"></path></g><g><path stroke-linecap="round" stroke-linejoin="round" stroke="#ddd" d="M141.5 523.8L159.3 522.9L177.1 521.6L194.9 520.9L212.7 521.1L230.5 521.3L248.3 522.1L266.1 522.5L283.9 523.4L301.7 523.7L319.4 523.4L337.2 524.1L355 523L372.8 521.6L390.6 521.8L408.4 523L426.2 522.7L444 521.5L461.8 522.7L479.6 516.5L497.4 509.6L515.2 517.3L533 521.5L550.7 521.5L568.5 523.9L586.3 523.8L604.1 522.5L621.9 524.5L639.7 524.2L657.5 524.7L675.3 525.7L693.1 525.7" fill="none" stroke-width="1"></path></g><g><path stroke-linecap="round" stroke-linejoin="round" stroke="#ddd" d="M141.5 519.9L159.3 514.9L177.1 515.8L194.9 514.1L212.7 510.7L230.5 513.2L248.3 504L266.1 514.8L283.9 515.3L301.7 513.9L319.4 516.6L337.2 516.4L355 512.5L372.8 508.4L390.6 520.6L408.4 522.7L426.2 521L444 522.5L461.8 523.3L479.6 523L497.4 520.4L515.2 522.5L533 523.8L550.7 522.6L568.5 524.2L586.3 524.2L604.1 524.8L621.9 524.5L639.7 524.4L657.5 525.1L675.3 526.2L693.1 526.2" fill="none" stroke-width="1"></path></g><g><path fill="none" stroke-linecap="butt" stroke-linejoin="round" stroke="#fff" stroke-width="2.5" d="M52.6 515.1L70.4 514.1L88.1 514.9L105.9 514.4L123.7 513.2L141.5 514.9L159.3 515.5L177.1 514.5L194.9 513.5L212.7 513L230.5 512.8L248.3 513.4L266.1 510.5L283.9 511.4L301.7 511.4L319.4 502.3L337.2 506.4L355 502.1L372.8 498L390.6 486L408.4 486.2L426.2 476.8L444 470.2L461.8 467.8L479.6 455.2L497.4 456.7L515.2 461.2L533 464.2L550.7 462.8L568.5 467.2L586.3 469.9L604.1 463.8L621.9 463.9L639.7 464.5L657.5 460.6L675.3 468.4L693.1 460.2"></path><polyline points="52.60,515.10 70.40,514.10 88.10,514.90 105.90,514.40 123.70,513.20 141.50,514.90 159.30,515.50 177.10,514.50 194.90,513.50 212.70,513.00 230.50,512.80 248.30,513.40 266.10,510.50 283.90,511.40 301.70,511.40 319.40,502.30 337.20,506.40 355.00,502.10 372.80,498.00 390.60,486.00 408.40,486.20 426.20,476.80 444.00,470.20 461.80,467.80 479.60,455.20 497.40,456.70 515.20,461.20 533.00,464.20 550.70,462.80 568.50,467.20 586.30,469.90 604.10,463.80 621.90,463.90 639.70,464.50 657.50,460.60 675.30,468.40 693.10,460.20" stroke-linejoin="round" stroke-width="1.5" stroke="#4C6A9C" fill="none" stroke-linecap="butt"></polyline><g><circle cx="52.6" cy="515.1" r="1.8" fill="#4C6A9C"></circle><circle cx="70.4" cy="514.1" r="1.8" fill="#4C6A9C"></circle><circle cx="88.1" cy="514.9" r="1.8" fill="#4C6A9C"></circle><circle cx="105.9" cy="514.4" r="1.8" fill="#4C6A9C"></circle><circle cx="123.7" cy="513.2" r="1.8" fill="#4C6A9C"></circle><circle cx="141.5" cy="514.9" r="1.8" fill="#4C6A9C"></circle><circle cx="159.3" cy="515.5" r="1.8" fill="#4C6A9C"></circle><circle cx="177.1" cy="514.5" r="1.8" fill="#4C6A9C"></circle><circle cx="194.9" cy="513.5" r="1.8" fill="#4C6A9C"></circle><circle cx="212.7" cy="513" r="1.8" fill="#4C6A9C"></circle><circle cx="230.5" cy="512.8" r="1.8" fill="#4C6A9C"></circle><circle cx="248.3" cy="513.4" r="1.8" fill="#4C6A9C"></circle><circle cx="266.1" cy="510.5" r="1.8" fill="#4C6A9C"></circle><circle cx="283.9" cy="511.4" r="1.8" fill="#4C6A9C"></circle><circle cx="301.7" cy="511.4" r="1.8" fill="#4C6A9C"></circle><circle cx="319.4" cy="502.3" r="1.8" fill="#4C6A9C"></circle><circle cx="337.2" cy="506.4" r="1.8" fill="#4C6A9C"></circle><circle cx="355" cy="502.1" r="1.8" fill="#4C6A9C"></circle><circle cx="372.8" cy="498" r="1.8" fill="#4C6A9C"></circle><circle cx="390.6" cy="486" r="1.8" fill="#4C6A9C"></circle><circle cx="408.4" cy="486.2" r="1.8" fill="#4C6A9C"></circle><circle cx="426.2" cy="476.8" r="1.8" fill="#4C6A9C"></circle><circle cx="444" cy="470.2" r="1.8" fill="#4C6A9C"></circle><circle cx="461.8" cy="467.8" r="1.8" fill="#4C6A9C"></circle><circle cx="479.6" cy="455.2" r="1.8" fill="#4C6A9C"></circle><circle cx="497.4" cy="456.7" r="1.8" fill="#4C6A9C"></circle><circle cx="515.2" cy="461.2" r="1.8" fill="#4C6A9C"></circle><circle cx="533" cy="464.2" r="1.8" fill="#4C6A9C"></circle><circle cx="550.7" cy="462.8" r="1.8" fill="#4C6A9C"></circle><circle cx="568.5" cy="467.2" r="1.8" fill="#4C6A9C"></circle><circle cx="586.3" cy="469.9" r="1.8" fill="#4C6A9C"></circle><circle cx="604.1" cy="463.8" r="1.8" fill="#4C6A9C"></circle><circle cx="621.9" cy="463.9" r="1.8" fill="#4C6A9C"></circle><circle cx="639.7" cy="464.5" r="1.8" fill="#4C6A9C"></circle><circle cx="657.5" cy="460.6" r="1.8" fill="#4C6A9C"></circle><circle cx="675.3" cy="468.4" r="1.8" fill="#4C6A9C"></circle><circle cx="693.1" cy="460.2" r="1.8" fill="#4C6A9C"></circle></g></g><g><path fill="none" stroke-linecap="butt" stroke-linejoin="round" stroke="#fff" stroke-width="2.5" d="M52.6 164.6L70.4 99L88.1 136.9L105.9 124.2L123.7 137.9L141.5 130.7L159.3 83.9L177.1 157.5L194.9 168.2L212.7 92L230.5 126.8L248.3 78.9L266.1 129.3L283.9 133.8L301.7 125.9L319.4 192L337.2 148.3L355 133L372.8 104.5L390.6 93.6L408.4 139.2L426.2 130.3L444 145.1L461.8 165.3L479.6 202.8L497.4 196.3L515.2 185.4L533 200.3L550.7 158.4L568.5 168.4L586.3 231.6L604.1 183.4L621.9 187.4L639.7 170.8L657.5 193.7L675.3 271.8L693.1 261.7"></path><polyline points="52.60,164.60 70.40,99.00 88.10,136.90 105.90,124.20 123.70,137.90 141.50,130.70 159.30,83.90 177.10,157.50 194.90,168.20 212.70,92.00 230.50,126.80 248.30,78.90 266.10,129.30 283.90,133.80 301.70,125.90 319.40,192.00 337.20,148.30 355.00,133.00 372.80,104.50 390.60,93.60 408.40,139.20 426.20,130.30 444.00,145.10 461.80,165.30 479.60,202.80 497.40,196.30 515.20,185.40 533.00,200.30 550.70,158.40 568.50,168.40 586.30,231.60 604.10,183.40 621.90,187.40 639.70,170.80 657.50,193.70 675.30,271.80 693.10,261.70" stroke-linejoin="round" stroke-width="1.5" stroke="#00823F" fill="none" stroke-linecap="butt"></polyline><g><circle cx="52.6" cy="164.6" r="1.8" fill="#00823F"></circle><circle cx="70.4" cy="99" r="1.8" fill="#00823F"></circle><circle cx="88.1" cy="136.9" r="1.8" fill="#00823F"></circle><circle cx="105.9" cy="124.2" r="1.8" fill="#00823F"></circle><circle cx="123.7" cy="137.9" r="1.8" fill="#00823F"></circle><circle cx="141.5" cy="130.7" r="1.8" fill="#00823F"></circle><circle cx="159.3" cy="83.9" r="1.8" fill="#00823F"></circle><circle cx="177.1" cy="157.5" r="1.8" fill="#00823F"></circle><circle cx="194.9" cy="168.2" r="1.8" fill="#00823F"></circle><circle cx="212.7" cy="92" r="1.8" fill="#00823F"></circle><circle cx="230.5" cy="126.8" r="1.8" fill="#00823F"></circle><circle cx="248.3" cy="78.9" r="1.8" fill="#00823F"></circle><circle cx="266.1" cy="129.3" r="1.8" fill="#00823F"></circle><circle cx="283.9" cy="133.8" r="1.8" fill="#00823F"></circle><circle cx="301.7" cy="125.9" r="1.8" fill="#00823F"></circle><circle cx="319.4" cy="192" r="1.8" fill="#00823F"></circle><circle cx="337.2" cy="148.3" r="1.8" fill="#00823F"></circle><circle cx="355" cy="133" r="1.8" fill="#00823F"></circle><circle cx="372.8" cy="104.5" r="1.8" fill="#00823F"></circle><circle cx="390.6" cy="93.6" r="1.8" fill="#00823F"></circle><circle cx="408.4" cy="139.2" r="1.8" fill="#00823F"></circle><circle cx="426.2" cy="130.3" r="1.8" fill="#00823F"></circle><circle cx="444" cy="145.1" r="1.8" fill="#00823F"></circle><circle cx="461.8" cy="165.3" r="1.8" fill="#00823F"></circle><circle cx="479.6" cy="202.8" r="1.8" fill="#00823F"></circle><circle cx="497.4" cy="196.3" r="1.8" fill="#00823F"></circle><circle cx="515.2" cy="185.4" r="1.8" fill="#00823F"></circle><circle cx="533" cy="200.3" r="1.8" fill="#00823F"></circle><circle cx="550.7" cy="158.4" r="1.8" fill="#00823F"></circle><circle cx="568.5" cy="168.4" r="1.8" fill="#00823F"></circle><circle cx="586.3" cy="231.6" r="1.8" fill="#00823F"></circle><circle cx="604.1" cy="183.4" r="1.8" fill="#00823F"></circle><circle cx="621.9" cy="187.4" r="1.8" fill="#00823F"></circle><circle cx="639.7" cy="170.8" r="1.8" fill="#00823F"></circle><circle cx="657.5" cy="193.7" r="1.8" fill="#00823F"></circle><circle cx="675.3" cy="271.8" r="1.8" fill="#00823F"></circle><circle cx="693.1" cy="261.7" r="1.8" fill="#00823F"></circle></g></g><g><path fill="none" stroke-linecap="butt" stroke-linejoin="round" stroke="#fff" stroke-width="2.5" d="M141.5 515.5L159.3 511.4L177.1 506.3L194.9 502.9L212.7 498.5L230.5 499.5L248.3 478.2L266.1 500.2L283.9 502L301.7 503.2L319.4 510.7L337.2 505.8L355 500.2L372.8 490.8L390.6 502.6L408.4 507.4L426.2 504L444 509.5L461.8 506.6L479.6 510.4L497.4 500L515.2 506.6L533 512.5L550.7 513L568.5 514.4L586.3 514.1L604.1 511.4L621.9 511.7L639.7 511L657.5 511.9L675.3 514.1L693.1 514.6"></path><polyline points="141.50,515.50 159.30,511.40 177.10,506.30 194.90,502.90 212.70,498.50 230.50,499.50 248.30,478.20 266.10,500.20 283.90,502.00 301.70,503.20 319.40,510.70 337.20,505.80 355.00,500.20 372.80,490.80 390.60,502.60 408.40,507.40 426.20,504.00 444.00,509.50 461.80,506.60 479.60,510.40 497.40,500.00 515.20,506.60 533.00,512.50 550.70,513.00 568.50,514.40 586.30,514.10 604.10,511.40 621.90,511.70 639.70,511.00 657.50,511.90 675.30,514.10 693.10,514.60" stroke-linejoin="round" stroke-width="1.5" stroke="#883039" fill="none" stroke-linecap="butt"></polyline><g><circle cx="141.5" cy="515.5" r="1.8" fill="#883039"></circle><circle cx="159.3" cy="511.4" r="1.8" fill="#883039"></circle><circle cx="177.1" cy="506.3" r="1.8" fill="#883039"></circle><circle cx="194.9" cy="502.9" r="1.8" fill="#883039"></circle><circle cx="212.7" cy="498.5" r="1.8" fill="#883039"></circle><circle cx="230.5" cy="499.5" r="1.8" fill="#883039"></circle><circle cx="248.3" cy="478.2" r="1.8" fill="#883039"></circle><circle cx="266.1" cy="500.2" r="1.8" fill="#883039"></circle><circle cx="283.9" cy="502" r="1.8" fill="#883039"></circle><circle cx="301.7" cy="503.2" r="1.8" fill="#883039"></circle><circle cx="319.4" cy="510.7" r="1.8" fill="#883039"></circle><circle cx="337.2" cy="505.8" r="1.8" fill="#883039"></circle><circle cx="355" cy="500.2" r="1.8" fill="#883039"></circle><circle cx="372.8" cy="490.8" r="1.8" fill="#883039"></circle><circle cx="390.6" cy="502.6" r="1.8" fill="#883039"></circle><circle cx="408.4" cy="507.4" r="1.8" fill="#883039"></circle><circle cx="426.2" cy="504" r="1.8" fill="#883039"></circle><circle cx="444" cy="509.5" r="1.8" fill="#883039"></circle><circle cx="461.8" cy="506.6" r="1.8" fill="#883039"></circle><circle cx="479.6" cy="510.4" r="1.8" fill="#883039"></circle><circle cx="497.4" cy="500" r="1.8" fill="#883039"></circle><circle cx="515.2" cy="506.6" r="1.8" fill="#883039"></circle><circle cx="533" cy="512.5" r="1.8" fill="#883039"></circle><circle cx="550.7" cy="513" r="1.8" fill="#883039"></circle><circle cx="568.5" cy="514.4" r="1.8" fill="#883039"></circle><circle cx="586.3" cy="514.1" r="1.8" fill="#883039"></circle><circle cx="604.1" cy="511.4" r="1.8" fill="#883039"></circle><circle cx="621.9" cy="511.7" r="1.8" fill="#883039"></circle><circle cx="639.7" cy="511" r="1.8" fill="#883039"></circle><circle cx="657.5" cy="511.9" r="1.8" fill="#883039"></circle><circle cx="675.3" cy="514.1" r="1.8" fill="#883039"></circle><circle cx="693.1" cy="514.6" r="1.8" fill="#883039"></circle></g></g><g><path fill="none" stroke-linecap="butt" stroke-linejoin="round" stroke="#fff" stroke-width="2.5" d="M52.6 526.2L70.4 526.2L88.1 526.2L105.9 526.2L123.7 526.2L141.5 526.1L159.3 526.1L177.1 526L194.9 525.9L212.7 525.8L230.5 525.6L248.3 525.4L266.1 525.1L283.9 524.5L301.7 524.2L319.4 523.5L337.2 523.7L355 522.7L372.8 521.9L390.6 521.4L408.4 521.2L426.2 520.4L444 518.1L461.8 514.9L479.6 510.8L497.4 506.3L515.2 491.8L533 489.8L550.7 471.7L568.5 464.3L586.3 440.9L604.1 442.1L621.9 435.4L639.7 440L657.5 426.4L675.3 383.9L693.1 391"></path><polyline points="52.60,526.20 70.40,526.20 88.10,526.20 105.90,526.20 123.70,526.20 141.50,526.10 159.30,526.10 177.10,526.00 194.90,525.90 212.70,525.80 230.50,525.60 248.30,525.40 266.10,525.10 283.90,524.50 301.70,524.20 319.40,523.50 337.20,523.70 355.00,522.70 372.80,521.90 390.60,521.40 408.40,521.20 426.20,520.40 444.00,518.10 461.80,514.90 479.60,510.80 497.40,506.30 515.20,491.80 533.00,489.80 550.70,471.70 568.50,464.30 586.30,440.90 604.10,442.10 621.90,435.40 639.70,440.00 657.50,426.40 675.30,383.90 693.10,391.00" stroke-linejoin="round" stroke-width="1.5" stroke="#CF0A66" fill="none" stroke-linecap="butt"></polyline><g><circle cx="52.6" cy="526.2" r="1.8" fill="#CF0A66"></circle><circle cx="70.4" cy="526.2" r="1.8" fill="#CF0A66"></circle><circle cx="88.1" cy="526.2" r="1.8" fill="#CF0A66"></circle><circle cx="105.9" cy="526.2" r="1.8" fill="#CF0A66"></circle><circle cx="123.7" cy="526.2" r="1.8" fill="#CF0A66"></circle><circle cx="141.5" cy="526.1" r="1.8" fill="#CF0A66"></circle><circle cx="159.3" cy="526.1" r="1.8" fill="#CF0A66"></circle><circle cx="177.1" cy="526" r="1.8" fill="#CF0A66"></circle><circle cx="194.9" cy="525.9" r="1.8" fill="#CF0A66"></circle><circle cx="212.7" cy="525.8" r="1.8" fill="#CF0A66"></circle><circle cx="230.5" cy="525.6" r="1.8" fill="#CF0A66"></circle><circle cx="248.3" cy="525.4" r="1.8" fill="#CF0A66"></circle><circle cx="266.1" cy="525.1" r="1.8" fill="#CF0A66"></circle><circle cx="283.9" cy="524.5" r="1.8" fill="#CF0A66"></circle><circle cx="301.7" cy="524.2" r="1.8" fill="#CF0A66"></circle><circle cx="319.4" cy="523.5" r="1.8" fill="#CF0A66"></circle><circle cx="337.2" cy="523.7" r="1.8" fill="#CF0A66"></circle><circle cx="355" cy="522.7" r="1.8" fill="#CF0A66"></circle><circle cx="372.8" cy="521.9" r="1.8" fill="#CF0A66"></circle><circle cx="390.6" cy="521.4" r="1.8" fill="#CF0A66"></circle><circle cx="408.4" cy="521.2" r="1.8" fill="#CF0A66"></circle><circle cx="426.2" cy="520.4" r="1.8" fill="#CF0A66"></circle><circle cx="444" cy="518.1" r="1.8" fill="#CF0A66"></circle><circle cx="461.8" cy="514.9" r="1.8" fill="#CF0A66"></circle><circle cx="479.6" cy="510.8" r="1.8" fill="#CF0A66"></circle><circle cx="497.4" cy="506.3" r="1.8" fill="#CF0A66"></circle><circle cx="515.2" cy="491.8" r="1.8" fill="#CF0A66"></circle><circle cx="533" cy="489.8" r="1.8" fill="#CF0A66"></circle><circle cx="550.7" cy="471.7" r="1.8" fill="#CF0A66"></circle><circle cx="568.5" cy="464.3" r="1.8" fill="#CF0A66"></circle><circle cx="586.3" cy="440.9" r="1.8" fill="#CF0A66"></circle><circle cx="604.1" cy="442.1" r="1.8" fill="#CF0A66"></circle><circle cx="621.9" cy="435.4" r="1.8" fill="#CF0A66"></circle><circle cx="639.7" cy="440" r="1.8" fill="#CF0A66"></circle><circle cx="657.5" cy="426.4" r="1.8" fill="#CF0A66"></circle><circle cx="675.3" cy="383.9" r="1.8" fill="#CF0A66"></circle><circle cx="693.1" cy="391" r="1.8" fill="#CF0A66"></circle></g></g><g><path fill="none" stroke-linecap="butt" stroke-linejoin="round" stroke="#fff" stroke-width="2.5" d="M52.6 526.2L70.4 526.2L88.1 526.2L105.9 526.2L123.7 526.2L141.5 526.2L159.3 526.2L177.1 526.2L194.9 526.2L212.7 526.2L230.5 526.2L248.3 526.2L266.1 526.2L283.9 526.2L301.7 526.2L319.4 526.2L337.2 526.2L355 526.2L372.8 526.2L390.6 526.2L408.4 526.2L426.2 526.2L444 526.2L461.8 526.2L479.6 526.1L497.4 526.1L515.2 526.1L533 526.1L550.7 526L568.5 525.9L586.3 525.7L604.1 525.4L621.9 525L639.7 524.1L657.5 522.8L675.3 520.8L693.1 521"></path><polyline points="52.60,526.20 70.40,526.20 88.10,526.20 105.90,526.20 123.70,526.20 141.50,526.20 159.30,526.20 177.10,526.20 194.90,526.20 212.70,526.20 230.50,526.20 248.30,526.20 266.10,526.20 283.90,526.20 301.70,526.20 319.40,526.20 337.20,526.20 355.00,526.20 372.80,526.20 390.60,526.20 408.40,526.20 426.20,526.20 444.00,526.20 461.80,526.20 479.60,526.10 497.40,526.10 515.20,526.10 533.00,526.10 550.70,526.00 568.50,525.90 586.30,525.70 604.10,525.40 621.90,525.00 639.70,524.10 657.50,522.80 675.30,520.80 693.10,521.00" stroke-linejoin="round" stroke-width="1.5" stroke="#6D3E91" fill="none" stroke-linecap="butt"></polyline><g><circle cx="52.6" cy="526.2" r="1.8" fill="#6D3E91"></circle><circle cx="70.4" cy="526.2" r="1.8" fill="#6D3E91"></circle><circle cx="88.1" cy="526.2" r="1.8" fill="#6D3E91"></circle><circle cx="105.9" cy="526.2" r="1.8" fill="#6D3E91"></circle><circle cx="123.7" cy="526.2" r="1.8" fill="#6D3E91"></circle><circle cx="141.5" cy="526.2" r="1.8" fill="#6D3E91"></circle><circle cx="159.3" cy="526.2" r="1.8" fill="#6D3E91"></circle><circle cx="177.1" cy="526.2" r="1.8" fill="#6D3E91"></circle><circle cx="194.9" cy="526.2" r="1.8" fill="#6D3E91"></circle><circle cx="212.7" cy="526.2" r="1.8" fill="#6D3E91"></circle><circle cx="230.5" cy="526.2" r="1.8" fill="#6D3E91"></circle><circle cx="248.3" cy="526.2" r="1.8" fill="#6D3E91"></circle><circle cx="266.1" cy="526.2" r="1.8" fill="#6D3E91"></circle><circle cx="283.9" cy="526.2" r="1.8" fill="#6D3E91"></circle><circle cx="301.7" cy="526.2" r="1.8" fill="#6D3E91"></circle><circle cx="319.4" cy="526.2" r="1.8" fill="#6D3E91"></circle><circle cx="337.2" cy="526.2" r="1.8" fill="#6D3E91"></circle><circle cx="355" cy="526.2" r="1.8" fill="#6D3E91"></circle><circle cx="372.8" cy="526.2" r="1.8" fill="#6D3E91"></circle><circle cx="390.6" cy="526.2" r="1.8" fill="#6D3E91"></circle><circle cx="408.4" cy="526.2" r="1.8" fill="#6D3E91"></circle><circle cx="426.2" cy="526.2" r="1.8" fill="#6D3E91"></circle><circle cx="444" cy="526.2" r="1.8" fill="#6D3E91"></circle><circle cx="461.8" cy="526.2" r="1.8" fill="#6D3E91"></circle><circle cx="479.6" cy="526.1" r="1.8" fill="#6D3E91"></circle><circle cx="497.4" cy="526.1" r="1.8" fill="#6D3E91"></circle><circle cx="515.2" cy="526.1" r="1.8" fill="#6D3E91"></circle><circle cx="533" cy="526.1" r="1.8" fill="#6D3E91"></circle><circle cx="550.7" cy="526" r="1.8" fill="#6D3E91"></circle><circle cx="568.5" cy="525.9" r="1.8" fill="#6D3E91"></circle><circle cx="586.3" cy="525.7" r="1.8" fill="#6D3E91"></circle><circle cx="604.1" cy="525.4" r="1.8" fill="#6D3E91"></circle><circle cx="621.9" cy="525" r="1.8" fill="#6D3E91"></circle><circle cx="639.7" cy="524.1" r="1.8" fill="#6D3E91"></circle><circle cx="657.5" cy="522.8" r="1.8" fill="#6D3E91"></circle><circle cx="675.3" cy="520.8" r="1.8" fill="#6D3E91"></circle><circle cx="693.1" cy="521" r="1.8" fill="#6D3E91"></circle></g></g><g><path fill="none" stroke-linecap="butt" stroke-linejoin="round" stroke="#fff" stroke-width="2.5" d="M52.6 87.8L70.4 154L88.1 111.1L105.9 121.5L123.7 101.6L141.5 105.6L159.3 161.8L177.1 94.9L194.9 91L212.7 175.5L230.5 137.3L248.3 214.6L266.1 134.2L283.9 126.2L301.7 134.1L319.4 68L337.2 111.9L355 143.1L372.8 191.3L390.6 190.6L408.4 136.9L426.2 161.4L444 149.7L461.8 136L479.6 118L497.4 147.4L515.2 151.9L533 124.6L550.7 186.6L568.5 174.6L586.3 132.5L604.1 189.3L621.9 190.3L639.7 203.7L657.5 197.5L675.3 151.9L693.1 162.4"></path><polyline points="52.60,87.80 70.40,154.00 88.10,111.10 105.90,121.50 123.70,101.60 141.50,105.60 159.30,161.80 177.10,94.90 194.90,91.00 212.70,175.50 230.50,137.30 248.30,214.60 266.10,134.20 283.90,126.20 301.70,134.10 319.40,68.00 337.20,111.90 355.00,143.10 372.80,191.30 390.60,190.60 408.40,136.90 426.20,161.40 444.00,149.70 461.80,136.00 479.60,118.00 497.40,147.40 515.20,151.90 533.00,124.60 550.70,186.60 568.50,174.60 586.30,132.50 604.10,189.30 621.90,190.30 639.70,203.70 657.50,197.50 675.30,151.90 693.10,162.40" stroke-linejoin="round" stroke-width="1.5" stroke="#00847E" fill="none" stroke-linecap="butt"></polyline><g><circle cx="52.6" cy="87.8" r="1.8" fill="#00847E"></circle><circle cx="70.4" cy="154" r="1.8" fill="#00847E"></circle><circle cx="88.1" cy="111.1" r="1.8" fill="#00847E"></circle><circle cx="105.9" cy="121.5" r="1.8" fill="#00847E"></circle><circle cx="123.7" cy="101.6" r="1.8" fill="#00847E"></circle><circle cx="141.5" cy="105.6" r="1.8" fill="#00847E"></circle><circle cx="159.3" cy="161.8" r="1.8" fill="#00847E"></circle><circle cx="177.1" cy="94.9" r="1.8" fill="#00847E"></circle><circle cx="194.9" cy="91" r="1.8" fill="#00847E"></circle><circle cx="212.7" cy="175.5" r="1.8" fill="#00847E"></circle><circle cx="230.5" cy="137.3" r="1.8" fill="#00847E"></circle><circle cx="248.3" cy="214.6" r="1.8" fill="#00847E"></circle><circle cx="266.1" cy="134.2" r="1.8" fill="#00847E"></circle><circle cx="283.9" cy="126.2" r="1.8" fill="#00847E"></circle><circle cx="301.7" cy="134.1" r="1.8" fill="#00847E"></circle><circle cx="319.4" cy="68" r="1.8" fill="#00847E"></circle><circle cx="337.2" cy="111.9" r="1.8" fill="#00847E"></circle><circle cx="355" cy="143.1" r="1.8" fill="#00847E"></circle><circle cx="372.8" cy="191.3" r="1.8" fill="#00847E"></circle><circle cx="390.6" cy="190.6" r="1.8" fill="#00847E"></circle><circle cx="408.4" cy="136.9" r="1.8" fill="#00847E"></circle><circle cx="426.2" cy="161.4" r="1.8" fill="#00847E"></circle><circle cx="444" cy="149.7" r="1.8" fill="#00847E"></circle><circle cx="461.8" cy="136" r="1.8" fill="#00847E"></circle><circle cx="479.6" cy="118" r="1.8" fill="#00847E"></circle><circle cx="497.4" cy="147.4" r="1.8" fill="#00847E"></circle><circle cx="515.2" cy="151.9" r="1.8" fill="#00847E"></circle><circle cx="533" cy="124.6" r="1.8" fill="#00847E"></circle><circle cx="550.7" cy="186.6" r="1.8" fill="#00847E"></circle><circle cx="568.5" cy="174.6" r="1.8" fill="#00847E"></circle><circle cx="586.3" cy="132.5" r="1.8" fill="#00847E"></circle><circle cx="604.1" cy="189.3" r="1.8" fill="#00847E"></circle><circle cx="621.9" cy="190.3" r="1.8" fill="#00847E"></circle><circle cx="639.7" cy="203.7" r="1.8" fill="#00847E"></circle><circle cx="657.5" cy="197.5" r="1.8" fill="#00847E"></circle><circle cx="675.3" cy="151.9" r="1.8" fill="#00847E"></circle><circle cx="693.1" cy="162.4" r="1.8" fill="#00847E"></circle></g></g><g><path fill="none" stroke-linecap="butt" stroke-linejoin="round" stroke="#fff" stroke-width="2.5" d="M141.5 523.8L159.3 522.9L177.1 521.6L194.9 520.9L212.7 521.1L230.5 521.3L248.3 522.1L266.1 522.5L283.9 523.4L301.7 523.7L319.4 523.4L337.2 524.1L355 523L372.8 521.6L390.6 521.8L408.4 523L426.2 522.7L444 521.5L461.8 522.7L479.6 516.5L497.4 509.6L515.2 517.3L533 521.5L550.7 521.5L568.5 523.9L586.3 523.8L604.1 522.5L621.9 524.5L639.7 524.2L657.5 524.7L675.3 525.7L693.1 525.7"></path><polyline points="141.50,523.80 159.30,522.90 177.10,521.60 194.90,520.90 212.70,521.10 230.50,521.30 248.30,522.10 266.10,522.50 283.90,523.40 301.70,523.70 319.40,523.40 337.20,524.10 355.00,523.00 372.80,521.60 390.60,521.80 408.40,523.00 426.20,522.70 444.00,521.50 461.80,522.70 479.60,516.50 497.40,509.60 515.20,517.30 533.00,521.50 550.70,521.50 568.50,523.90 586.30,523.80 604.10,522.50 621.90,524.50 639.70,524.20 657.50,524.70 675.30,525.70 693.10,525.70" stroke-linejoin="round" stroke-width="1.5" stroke="#B13507" fill="none" stroke-linecap="butt"></polyline><g><circle cx="141.5" cy="523.8" r="1.8" fill="#B13507"></circle><circle cx="159.3" cy="522.9" r="1.8" fill="#B13507"></circle><circle cx="177.1" cy="521.6" r="1.8" fill="#B13507"></circle><circle cx="194.9" cy="520.9" r="1.8" fill="#B13507"></circle><circle cx="212.7" cy="521.1" r="1.8" fill="#B13507"></circle><circle cx="230.5" cy="521.3" r="1.8" fill="#B13507"></circle><circle cx="248.3" cy="522.1" r="1.8" fill="#B13507"></circle><circle cx="266.1" cy="522.5" r="1.8" fill="#B13507"></circle><circle cx="283.9" cy="523.4" r="1.8" fill="#B13507"></circle><circle cx="301.7" cy="523.7" r="1.8" fill="#B13507"></circle><circle cx="319.4" cy="523.4" r="1.8" fill="#B13507"></circle><circle cx="337.2" cy="524.1" r="1.8" fill="#B13507"></circle><circle cx="355" cy="523" r="1.8" fill="#B13507"></circle><circle cx="372.8" cy="521.6" r="1.8" fill="#B13507"></circle><circle cx="390.6" cy="521.8" r="1.8" fill="#B13507"></circle><circle cx="408.4" cy="523" r="1.8" fill="#B13507"></circle><circle cx="426.2" cy="522.7" r="1.8" fill="#B13507"></circle><circle cx="444" cy="521.5" r="1.8" fill="#B13507"></circle><circle cx="461.8" cy="522.7" r="1.8" fill="#B13507"></circle><circle cx="479.6" cy="516.5" r="1.8" fill="#B13507"></circle><circle cx="497.4" cy="509.6" r="1.8" fill="#B13507"></circle><circle cx="515.2" cy="517.3" r="1.8" fill="#B13507"></circle><circle cx="533" cy="521.5" r="1.8" fill="#B13507"></circle><circle cx="550.7" cy="521.5" r="1.8" fill="#B13507"></circle><circle cx="568.5" cy="523.9" r="1.8" fill="#B13507"></circle><circle cx="586.3" cy="523.8" r="1.8" fill="#B13507"></circle><circle cx="604.1" cy="522.5" r="1.8" fill="#B13507"></circle><circle cx="621.9" cy="524.5" r="1.8" fill="#B13507"></circle><circle cx="639.7" cy="524.2" r="1.8" fill="#B13507"></circle><circle cx="657.5" cy="524.7" r="1.8" fill="#B13507"></circle><circle cx="675.3" cy="525.7" r="1.8" fill="#B13507"></circle><circle cx="693.1" cy="525.7" r="1.8" fill="#B13507"></circle></g></g><g><path fill="none" stroke-linecap="butt" stroke-linejoin="round" stroke="#fff" stroke-width="2.5" d="M141.5 519.9L159.3 514.9L177.1 515.8L194.9 514.1L212.7 510.7L230.5 513.2L248.3 504L266.1 514.8L283.9 515.3L301.7 513.9L319.4 516.6L337.2 516.4L355 512.5L372.8 508.4L390.6 520.6L408.4 522.7L426.2 521L444 522.5L461.8 523.3L479.6 523L497.4 520.4L515.2 522.5L533 523.8L550.7 522.6L568.5 524.2L586.3 524.2L604.1 524.8L621.9 524.5L639.7 524.4L657.5 525.1L675.3 526.2L693.1 526.2"></path><polyline points="141.50,519.90 159.30,514.90 177.10,515.80 194.90,514.10 212.70,510.70 230.50,513.20 248.30,504.00 266.10,514.80 283.90,515.30 301.70,513.90 319.40,516.60 337.20,516.40 355.00,512.50 372.80,508.40 390.60,520.60 408.40,522.70 426.20,521.00 444.00,522.50 461.80,523.30 479.60,523.00 497.40,520.40 515.20,522.50 533.00,523.80 550.70,522.60 568.50,524.20 586.30,524.20 604.10,524.80 621.90,524.50 639.70,524.40 657.50,525.10 675.30,526.20 693.10,526.20" stroke-linejoin="round" stroke-width="1.5" stroke="#3C4E66" fill="none" stroke-linecap="butt"></polyline><g><circle cx="141.5" cy="519.9" r="1.8" fill="#3C4E66"></circle><circle cx="159.3" cy="514.9" r="1.8" fill="#3C4E66"></circle><circle cx="177.1" cy="515.8" r="1.8" fill="#3C4E66"></circle><circle cx="194.9" cy="514.1" r="1.8" fill="#3C4E66"></circle><circle cx="212.7" cy="510.7" r="1.8" fill="#3C4E66"></circle><circle cx="230.5" cy="513.2" r="1.8" fill="#3C4E66"></circle><circle cx="248.3" cy="504" r="1.8" fill="#3C4E66"></circle><circle cx="266.1" cy="514.8" r="1.8" fill="#3C4E66"></circle><circle cx="283.9" cy="515.3" r="1.8" fill="#3C4E66"></circle><circle cx="301.7" cy="513.9" r="1.8" fill="#3C4E66"></circle><circle cx="319.4" cy="516.6" r="1.8" fill="#3C4E66"></circle><circle cx="337.2" cy="516.4" r="1.8" fill="#3C4E66"></circle><circle cx="355" cy="512.5" r="1.8" fill="#3C4E66"></circle><circle cx="372.8" cy="508.4" r="1.8" fill="#3C4E66"></circle><circle cx="390.6" cy="520.6" r="1.8" fill="#3C4E66"></circle><circle cx="408.4" cy="522.7" r="1.8" fill="#3C4E66"></circle><circle cx="426.2" cy="521" r="1.8" fill="#3C4E66"></circle><circle cx="444" cy="522.5" r="1.8" fill="#3C4E66"></circle><circle cx="461.8" cy="523.3" r="1.8" fill="#3C4E66"></circle><circle cx="479.6" cy="523" r="1.8" fill="#3C4E66"></circle><circle cx="497.4" cy="520.4" r="1.8" fill="#3C4E66"></circle><circle cx="515.2" cy="522.5" r="1.8" fill="#3C4E66"></circle><circle cx="533" cy="523.8" r="1.8" fill="#3C4E66"></circle><circle cx="550.7" cy="522.6" r="1.8" fill="#3C4E66"></circle><circle cx="568.5" cy="524.2" r="1.8" fill="#3C4E66"></circle><circle cx="586.3" cy="524.2" r="1.8" fill="#3C4E66"></circle><circle cx="604.1" cy="524.8" r="1.8" fill="#3C4E66"></circle><circle cx="621.9" cy="524.5" r="1.8" fill="#3C4E66"></circle><circle cx="639.7" cy="524.4" r="1.8" fill="#3C4E66"></circle><circle cx="657.5" cy="525.1" r="1.8" fill="#3C4E66"></circle><circle cx="675.3" cy="526.2" r="1.8" fill="#3C4E66"></circle><circle cx="693.1" cy="526.2" r="1.8" fill="#3C4E66"></circle></g></g></g></g></g><g class="SourcesFooter" style="fill:#777"><g style="fill:#777"><text font-size="12.60" x="15.0" y="582.5"><tspan x="15" y="582.48">Source: Our World in Data based on BP Statistical Review of World Energy &amp; Ember</tspan></text></g><text font-size="12.60" x="627.9" y="582.5"><tspan x="627.856" y="582.48"><a target='_blank' style='fill: #777;' href='https://ourworldindata.org/energy'>OurWorldInData.org/energy</a>  <a style="fill: #777;" class="cclogo" href="http://creativecommons.org/licenses/by/4.0/deed.en_US" target="_blank">CC BY</a></tspan></text></g></svg>